<svg width="48" height="48" viewBox="0 0 48 48" fill="none" xmlns="http://www.w3.org/2000/svg">
<circle cx="24" cy="24" r="20" fill="#60C67C"/>
<path d="M31.2 16H16.8C15.8059 16 15 16.7675 15 17.7143V26.2857C15 27.2325 15.8059 28 16.8 28H31.2C32.1941 28 33 27.2325 33 26.2857V17.7143C33 16.7675 32.1941 16 31.2 16Z" stroke="white" stroke-width="1.5" stroke-linecap="round" stroke-linejoin="round"/>
<path d="M20 32H28" stroke="white" stroke-width="1.5" stroke-linecap="round" stroke-linejoin="round"/>
<path d="M24 28V32" stroke="white" stroke-width="1.5" stroke-linecap="round" stroke-linejoin="round"/>
<path d="M22 23.5793V20.7662C22 19.9889 22.848 19.5088 23.5145 19.9087L25.6785 21.2071C26.2995 21.5797 26.3308 22.4685 25.7374 22.8838L23.5735 24.3986C22.9107 24.8625 22 24.3884 22 23.5793Z" stroke="white" stroke-width="1.5"/>
</svg>
