<svg width="48" height="48" viewBox="0 0 48 48" fill="none" xmlns="http://www.w3.org/2000/svg">
<path d="M43.8453 22C44.5598 23.2376 44.5598 24.7624 43.8453 26L35.6547 40.1865C34.9402 41.4241 33.6197 42.1865 32.1906 42.1865L15.8094 42.1865C14.3803 42.1865 13.0598 41.4241 12.3453 40.1865L4.1547 26C3.44017 24.7624 3.44017 23.2376 4.1547 22L12.3453 7.81347C13.0598 6.57586 14.3803 5.81347 15.8094 5.81347L32.1906 5.81347C33.6197 5.81347 34.9402 6.57586 35.6547 7.81347L43.8453 22Z" fill="#7637FF"/>
<path d="M24 32L25.7778 30.2222M28 30.2222C28.5894 30.2222 29.1546 29.9881 29.5713 29.5713C29.9881 29.1546 30.2222 28.5894 30.2222 28C30.2222 27.4106 29.9881 26.8454 29.5713 26.4287C29.1546 26.0119 28.5894 25.7778 28 25.7778C27.4106 25.7778 26.8454 26.0119 26.4287 26.4287C26.0119 26.8454 25.7778 27.4106 25.7778 28C25.7778 28.5894 26.0119 29.1546 26.4287 29.5713C26.8454 29.9881 27.4106 30.2222 28 30.2222V30.2222ZM22.2222 17.7778L24 16L22.2222 17.7778ZM20 22.2222C20.5894 22.2222 21.1546 21.9881 21.5713 21.5713C21.9881 21.1546 22.2222 20.5894 22.2222 20C22.2222 19.4106 21.9881 18.8454 21.5713 18.4287C21.1546 18.0119 20.5894 17.7778 20 17.7778C19.4106 17.7778 18.8454 18.0119 18.4287 18.4287C18.0119 18.8454 17.7778 19.4106 17.7778 20C17.7778 20.5894 18.0119 21.1546 18.4287 21.5713C18.8454 21.9881 19.4106 22.2222 20 22.2222V22.2222ZM20.4444 27.5556L27.5556 20.4444L20.4444 27.5556ZM18.2222 32C18.8116 32 19.3768 31.7659 19.7936 31.3491C20.2103 30.9324 20.4444 30.3671 20.4444 29.7778C20.4444 29.1884 20.2103 28.6232 19.7936 28.2064C19.3768 27.7897 18.8116 27.5556 18.2222 27.5556C17.6329 27.5556 17.0676 27.7897 16.6509 28.2064C16.2341 28.6232 16 29.1884 16 29.7778C16 30.3671 16.2341 30.9324 16.6509 31.3491C17.0676 31.7659 17.6329 32 18.2222 32V32ZM29.7778 20.4444C30.3671 20.4444 30.9324 20.2103 31.3491 19.7936C31.7659 19.3768 32 18.8116 32 18.2222C32 17.6329 31.7659 17.0676 31.3491 16.6509C30.9324 16.2341 30.3671 16 29.7778 16C29.1884 16 28.6232 16.2341 28.2064 16.6509C27.7897 17.0676 27.5556 17.6329 27.5556 18.2222C27.5556 18.8116 27.7897 19.3768 28.2064 19.7936C28.6232 20.2103 29.1884 20.4444 29.7778 20.4444Z" stroke="white" stroke-width="1.5" stroke-linecap="round" stroke-linejoin="round"/>
</svg>
