<svg width="24" height="24" viewBox="0 0 24 24" fill="none" xmlns="http://www.w3.org/2000/svg">
<path d="M0 12C0 5.37258 5.37258 0 12 0V0C18.6274 0 24 5.37258 24 12V12C24 18.6274 18.6274 24 12 24V24C5.37258 24 0 18.6274 0 12V12Z" fill="#EDF0F5"/>
<circle cx="12" cy="12" r="12" fill="#F6F8FB"/>
<path d="M12 11.3077C13.4657 11.3077 14.6538 10.1195 14.6538 8.65385C14.6538 7.18817 13.4657 6 12 6C10.5343 6 9.34615 7.18817 9.34615 8.65385C9.34615 10.1195 10.5343 11.3077 12 11.3077Z" fill="#898EA2"/>
<path d="M12.4423 12.1914H11.5577C9.35917 12.1914 7.57692 13.9737 7.57692 16.1722C7.57692 16.905 8.171 17.4991 8.90384 17.4991H15.0962C15.829 17.4991 16.4231 16.905 16.4231 16.1722C16.4231 13.9737 14.6408 12.1914 12.4423 12.1914Z" fill="#898EA2"/>
</svg>
