<svg width="401" height="200" viewBox="0 0 450 296" fill="none" xmlns="http://www.w3.org/2000/svg"><rect width="464" height="296" rx="4" fill="#F6F8FB"/><path d="M240 28a4 4 0 0 1 4-4h192a4 4 0 0 1 4 4v240a4 4 0 0 1-4 4H244a4 4 0 0 1-4-4V28Z" fill="#fff"/><path d="M277.885 57.362h-2.656a3.323 3.323 0 0 0-.419-1.157 3.12 3.12 0 0 0-.76-.867 3.17 3.17 0 0 0-1.037-.533 4.049 4.049 0 0 0-1.243-.184c-.791 0-1.492.199-2.102.596-.611.393-1.089.971-1.435 1.733-.346.758-.519 1.683-.519 2.777 0 1.113.173 2.05.519 2.813.35.757.829 1.33 1.435 1.718.61.384 1.309.576 2.095.576a4.25 4.25 0 0 0 1.221-.17 3.34 3.34 0 0 0 1.03-.52 3.02 3.02 0 0 0 .774-.837c.213-.332.36-.71.441-1.137l2.656.015a5.72 5.72 0 0 1-.646 1.946 5.75 5.75 0 0 1-1.286 1.605c-.53.46-1.15.819-1.861 1.08-.71.255-1.498.383-2.365.383-1.278 0-2.419-.296-3.423-.888-1.004-.592-1.795-1.446-2.372-2.564-.578-1.117-.867-2.457-.867-4.02 0-1.567.292-2.907.874-4.02.582-1.117 1.375-1.972 2.379-2.563 1.004-.592 2.14-.888 3.409-.888.81 0 1.563.113 2.259.34a5.793 5.793 0 0 1 1.861 1.002c.544.436.992.97 1.342 1.605.355.63.587 1.35.696 2.16Zm7.058 9.851c-1.066 0-1.989-.234-2.77-.703a4.776 4.776 0 0 1-1.818-1.967c-.426-.843-.639-1.828-.639-2.955s.213-2.114.639-2.962a4.767 4.767 0 0 1 1.818-1.974c.781-.469 1.704-.703 2.77-.703 1.065 0 1.988.234 2.77.703a4.719 4.719 0 0 1 1.811 1.974c.431.848.646 1.835.646 2.962 0 1.127-.215 2.112-.646 2.955a4.728 4.728 0 0 1-1.811 1.967c-.782.469-1.705.703-2.77.703Zm.014-2.06c.578 0 1.061-.158 1.449-.475.388-.322.677-.753.866-1.293a5.28 5.28 0 0 0 .292-1.804 5.3 5.3 0 0 0-.292-1.811c-.189-.545-.478-.978-.866-1.3-.388-.322-.871-.483-1.449-.483-.592 0-1.084.161-1.477.483-.388.322-.68.755-.874 1.3a5.455 5.455 0 0 0-.284 1.811c0 .663.095 1.264.284 1.804.194.54.486.97.874 1.293.393.317.885.475 1.477.475Zm9.966-4.545V67h-2.571V56.09h2.458v1.855h.128a3.113 3.113 0 0 1 1.2-1.456c.554-.36 1.238-.54 2.052-.54.753 0 1.409.16 1.968.483a3.25 3.25 0 0 1 1.306 1.399c.313.61.467 1.352.462 2.223V67h-2.571v-6.548c0-.73-.189-1.3-.568-1.712-.374-.412-.893-.618-1.555-.618-.45 0-.85.1-1.201.298a2.073 2.073 0 0 0-.817.846c-.194.369-.291.816-.291 1.342Zm15.142-4.517v1.989h-6.449v-1.99h6.449ZM305.229 67V55.061c0-.734.151-1.345.454-1.832.308-.488.72-.853 1.236-1.094a4.007 4.007 0 0 1 1.719-.362c.445 0 .84.035 1.186.106s.601.135.767.192l-.511 1.989a4.515 4.515 0 0 0-.412-.1 2.495 2.495 0 0 0-.554-.057c-.479 0-.817.116-1.016.348-.194.228-.291.554-.291.98V67h-2.578Zm6.85 0V56.09h2.571V67h-2.571Zm1.292-12.457a1.5 1.5 0 0 1-1.051-.405 1.306 1.306 0 0 1-.44-.987c0-.389.147-.718.44-.988a1.486 1.486 0 0 1 1.051-.412c.412 0 .763.138 1.052.412.293.27.44.6.44.988 0 .383-.147.712-.44.987-.289.27-.64.405-1.052.405Zm7.971 12.649c-.857 0-1.624-.22-2.301-.66-.677-.441-1.212-1.08-1.605-1.918-.393-.838-.59-1.856-.59-3.054 0-1.213.199-2.235.597-3.069.402-.838.944-1.47 1.626-1.896a4.18 4.18 0 0 1 2.28-.646c.639 0 1.165.109 1.577.327.412.213.738.47.98.774.241.298.428.58.561.845h.107v-5.44h2.578V67h-2.529v-1.719h-.156a4.406 4.406 0 0 1-.575.845 3.168 3.168 0 0 1-.995.753c-.412.209-.93.313-1.555.313Zm.717-2.11c.545 0 1.009-.146 1.392-.44.384-.298.675-.712.874-1.243.199-.53.298-1.148.298-1.854 0-.705-.099-1.318-.298-1.839-.194-.52-.483-.926-.867-1.215-.378-.288-.845-.433-1.399-.433-.573 0-1.051.15-1.434.448-.384.298-.673.71-.867 1.236-.194.525-.291 1.126-.291 1.803 0 .682.097 1.29.291 1.826.199.53.49.95.874 1.257.388.303.864.454 1.427.454Zm12.662 2.131c-1.094 0-2.038-.227-2.834-.682a4.614 4.614 0 0 1-1.825-1.946c-.426-.843-.639-1.834-.639-2.976 0-1.122.213-2.107.639-2.954.431-.852 1.032-1.515 1.804-1.989.772-.478 1.678-.717 2.72-.717.672 0 1.307.109 1.903.327a4.294 4.294 0 0 1 1.591.994c.464.45.829 1.023 1.094 1.719.265.69.398 1.515.398 2.471v.789h-8.942v-1.733h6.477a2.76 2.76 0 0 0-.319-1.314 2.33 2.33 0 0 0-.874-.916c-.369-.223-.8-.334-1.293-.334-.525 0-.987.128-1.384.383a2.646 2.646 0 0 0-.931.995 2.863 2.863 0 0 0-.334 1.342v1.513c0 .634.116 1.179.348 1.633.232.45.557.796.973 1.037.417.237.905.355 1.463.355.374 0 .713-.052 1.016-.156a2.24 2.24 0 0 0 .788-.476c.223-.208.391-.466.505-.774l2.4.27a3.738 3.738 0 0 1-.866 1.662c-.422.468-.961.833-1.62 1.093-.658.256-1.411.384-2.258.384Zm9.597-6.605V67h-2.571V56.09h2.457v1.855h.128a3.12 3.12 0 0 1 1.2-1.456c.554-.36 1.238-.54 2.053-.54.753 0 1.408.16 1.967.483a3.25 3.25 0 0 1 1.307 1.399c.313.61.466 1.352.462 2.223V67h-2.571v-6.548c0-.73-.19-1.3-.569-1.712-.374-.412-.892-.618-1.555-.618-.45 0-.85.1-1.2.298a2.067 2.067 0 0 0-.817.846c-.194.369-.291.816-.291 1.342Zm14.375 6.605c-1.089 0-2.024-.239-2.806-.717a4.789 4.789 0 0 1-1.796-1.982c-.417-.847-.625-1.823-.625-2.926 0-1.108.213-2.086.639-2.933.426-.852 1.027-1.515 1.804-1.989.781-.478 1.704-.717 2.77-.717.885 0 1.669.163 2.35.49a4.013 4.013 0 0 1 1.641 1.37c.407.588.639 1.274.696 2.06h-2.457a2.353 2.353 0 0 0-.71-1.314c-.37-.355-.865-.532-1.485-.532-.525 0-.987.142-1.385.426-.398.28-.708.682-.93 1.207-.218.526-.327 1.156-.327 1.89 0 .743.109 1.382.327 1.917.218.53.523.94.916 1.229.398.284.864.426 1.399.426.379 0 .717-.071 1.016-.213.303-.147.556-.358.76-.632.203-.275.343-.609.419-1.002h2.457c-.061.772-.289 1.456-.682 2.053a4.038 4.038 0 0 1-1.605 1.392c-.677.331-1.472.497-2.386.497Zm11.614 0c-1.094 0-2.039-.227-2.834-.682a4.614 4.614 0 0 1-1.825-1.946c-.426-.843-.639-1.834-.639-2.976 0-1.122.213-2.107.639-2.954.431-.852 1.032-1.515 1.804-1.989.771-.478 1.678-.717 2.72-.717.672 0 1.307.109 1.903.327a4.294 4.294 0 0 1 1.591.994c.464.45.829 1.023 1.094 1.719.265.69.398 1.515.398 2.471v.789h-8.942v-1.733h6.477a2.772 2.772 0 0 0-.319-1.314 2.33 2.33 0 0 0-.874-.916c-.369-.223-.8-.334-1.293-.334-.525 0-.987.128-1.385.383a2.652 2.652 0 0 0-.93.995 2.863 2.863 0 0 0-.334 1.342v1.513c0 .634.116 1.179.348 1.633.232.45.557.796.973 1.037.417.237.905.355 1.463.355.374 0 .713-.052 1.016-.156a2.24 2.24 0 0 0 .788-.476c.223-.208.391-.466.505-.774l2.4.27a3.738 3.738 0 0 1-.866 1.662c-.422.468-.962.833-1.62 1.093-.658.256-1.411.384-2.258.384Zm-96.968 13.24c-.066-.62-.345-1.103-.838-1.449-.487-.345-1.122-.518-1.903-.518-.549 0-1.02.083-1.413.248-.393.166-.694.391-.902.675a1.638 1.638 0 0 0-.32.973c0 .303.069.566.206.788.142.223.334.412.575.569.242.151.509.279.803.383.293.104.589.192.888.263l1.363.34c.55.129 1.077.302 1.584.52.511.217.968.492 1.371.823.407.332.729.732.966 1.2.236.47.355 1.019.355 1.648 0 .853-.218 1.603-.654 2.252-.435.644-1.065 1.148-1.889 1.512-.819.36-1.811.54-2.976.54-1.131 0-2.114-.175-2.947-.525-.829-.35-1.477-.862-1.946-1.534-.464-.673-.715-1.492-.753-2.458h2.592c.038.507.195.928.469 1.264a2.48 2.48 0 0 0 1.073.753 4.24 4.24 0 0 0 1.491.249c.573 0 1.075-.085 1.506-.256.435-.175.776-.417 1.022-.724.247-.313.372-.677.377-1.094-.005-.379-.116-.691-.334-.938-.218-.25-.523-.459-.916-.625a8.816 8.816 0 0 0-1.364-.454l-1.655-.426c-1.197-.308-2.144-.774-2.84-1.4-.692-.63-1.037-1.465-1.037-2.507 0-.857.232-1.607.696-2.251.468-.644 1.105-1.143 1.91-1.498.805-.36 1.717-.54 2.735-.54 1.032 0 1.936.18 2.713.54.781.355 1.394.85 1.839 1.484.445.63.675 1.354.689 2.173h-2.536Zm9.729 10.76c-1.089 0-2.024-.239-2.806-.717a4.789 4.789 0 0 1-1.796-1.982c-.417-.847-.625-1.823-.625-2.926 0-1.108.213-2.086.639-2.933.426-.852 1.027-1.515 1.804-1.989.781-.478 1.704-.717 2.77-.717.885 0 1.669.163 2.35.49a4.013 4.013 0 0 1 1.641 1.37c.407.588.639 1.274.696 2.06h-2.457a2.353 2.353 0 0 0-.71-1.314c-.37-.355-.865-.532-1.485-.532-.525 0-.987.142-1.385.426-.398.28-.708.682-.93 1.207-.218.526-.327 1.156-.327 1.89 0 .743.109 1.382.327 1.917.218.53.523.94.916 1.229.398.284.864.426 1.399.426.379 0 .717-.071 1.016-.213.303-.147.556-.358.76-.632.203-.275.343-.609.419-1.002h2.457c-.061.772-.289 1.456-.682 2.053a4.038 4.038 0 0 1-1.605 1.392c-.677.331-1.472.497-2.386.497Zm11.543 0c-1.066 0-1.989-.234-2.77-.703a4.776 4.776 0 0 1-1.818-1.967c-.426-.843-.639-1.828-.639-2.955s.213-2.114.639-2.962a4.767 4.767 0 0 1 1.818-1.974c.781-.469 1.704-.703 2.77-.703 1.065 0 1.988.234 2.77.703a4.719 4.719 0 0 1 1.811 1.974c.431.848.646 1.835.646 2.962 0 1.127-.215 2.112-.646 2.955a4.728 4.728 0 0 1-1.811 1.967c-.782.469-1.705.703-2.77.703Zm.014-2.06c.578 0 1.061-.158 1.449-.475.388-.322.677-.753.866-1.293.194-.54.292-1.141.292-1.804 0-.668-.098-1.271-.292-1.811-.189-.545-.478-.978-.866-1.3-.388-.322-.871-.483-1.449-.483-.592 0-1.084.161-1.477.483-.389.322-.68.755-.874 1.3a5.455 5.455 0 0 0-.284 1.811c0 .663.095 1.264.284 1.804.194.54.485.97.874 1.293.393.317.885.475 1.477.475ZM302.02 91V80.09h2.493v1.82h.114c.199-.63.54-1.116 1.023-1.457a2.813 2.813 0 0 1 1.669-.518 6 6 0 0 1 .475.021c.18.01.329.026.448.05v2.365a2.715 2.715 0 0 0-.519-.1 4.776 4.776 0 0 0-.674-.05c-.469 0-.891.102-1.265.306-.369.199-.66.476-.873.831-.213.355-.32.765-.32 1.229V91h-2.571Zm12.31.213c-1.093 0-2.038-.227-2.834-.682a4.62 4.62 0 0 1-1.825-1.946c-.426-.843-.639-1.834-.639-2.976 0-1.122.213-2.107.639-2.954.431-.852 1.032-1.515 1.804-1.989.772-.478 1.679-.717 2.72-.717a5.51 5.51 0 0 1 1.904.327 4.31 4.31 0 0 1 1.591.994c.464.45.828 1.023 1.093 1.719.266.69.398 1.515.398 2.471v.789h-8.942v-1.733h6.478a2.773 2.773 0 0 0-.32-1.314 2.322 2.322 0 0 0-.874-.916c-.369-.223-.8-.334-1.292-.334-.526 0-.987.127-1.385.383a2.646 2.646 0 0 0-.931.995 2.862 2.862 0 0 0-.333 1.342v1.513c0 .634.116 1.179.348 1.633.232.45.556.796.973 1.037.416.237.904.355 1.463.355.374 0 .712-.052 1.015-.156a2.26 2.26 0 0 0 .789-.476c.222-.208.39-.466.504-.774l2.401.27a3.75 3.75 0 0 1-.867 1.662c-.421.468-.961.833-1.619 1.093-.658.256-1.411.384-2.259.384Z" fill="#1E232C"/><rect x="264" y="112" width="152" height="136" rx="4" fill="#F6F8FB"/><path d="M330.29 154a3.609 3.609 0 0 0-.433-.9 2.777 2.777 0 0 0-.631-.686 2.64 2.64 0 0 0-.825-.432 3.28 3.28 0 0 0-1.015-.15c-.603 0-1.151.156-1.645.468-.494.311-.887.77-1.178 1.377-.292.606-.438 1.35-.438 2.232 0 .882.148 1.626.443 2.232.295.607.694 1.066 1.198 1.377.504.312 1.07.468 1.7.468.583 0 1.097-.124 1.541-.373a2.64 2.64 0 0 0 1.044-1.064c.252-.461.378-1.003.378-1.626l.378.08h-3.063v-1.094h3.878v1.094c0 .838-.179 1.568-.537 2.187a3.703 3.703 0 0 1-1.471 1.442c-.623.338-1.339.507-2.148.507-.902 0-1.694-.212-2.376-.636-.68-.424-1.21-1.028-1.591-1.81-.378-.782-.567-1.71-.567-2.784 0-.805.108-1.53.323-2.172a4.808 4.808 0 0 1 .925-1.651 4.044 4.044 0 0 1 1.412-1.044 4.361 4.361 0 0 1 1.794-.363c.537 0 1.038.081 1.502.244a4.036 4.036 0 0 1 2.167 1.73c.246.404.415.853.508 1.347h-1.273Zm6.387 7.159c-.689 0-1.294-.164-1.815-.492a3.345 3.345 0 0 1-1.213-1.377c-.288-.59-.432-1.28-.432-2.068 0-.796.144-1.49.432-2.084a3.347 3.347 0 0 1 1.213-1.382c.521-.328 1.126-.492 1.815-.492.69 0 1.293.164 1.81.492.52.329.924.789 1.213 1.382.292.594.437 1.288.437 2.084 0 .788-.145 1.478-.437 2.068a3.303 3.303 0 0 1-1.213 1.377c-.517.328-1.12.492-1.81.492Zm0-1.054c.524 0 .955-.134 1.293-.403.338-.268.588-.621.75-1.059.163-.437.244-.911.244-1.421 0-.511-.081-.986-.244-1.427a2.401 2.401 0 0 0-.75-1.069c-.338-.272-.769-.408-1.293-.408-.524 0-.954.136-1.293.408a2.401 2.401 0 0 0-.75 1.069 4.081 4.081 0 0 0-.244 1.427c0 .51.081.984.244 1.421.162.438.412.791.75 1.059.339.269.769.403 1.293.403Zm8.354 1.054c-.69 0-1.295-.164-1.815-.492a3.345 3.345 0 0 1-1.213-1.377c-.288-.59-.433-1.28-.433-2.068 0-.796.145-1.49.433-2.084a3.347 3.347 0 0 1 1.213-1.382c.52-.328 1.125-.492 1.815-.492.689 0 1.292.164 1.809.492.521.329.925.789 1.213 1.382.292.594.438 1.288.438 2.084 0 .788-.146 1.478-.438 2.068a3.29 3.29 0 0 1-1.213 1.377c-.517.328-1.12.492-1.809.492Zm0-1.054c.523 0 .954-.134 1.292-.403.338-.268.589-.621.751-1.059.162-.437.244-.911.244-1.421 0-.511-.082-.986-.244-1.427a2.403 2.403 0 0 0-.751-1.069c-.338-.272-.769-.408-1.292-.408-.524 0-.955.136-1.293.408a2.411 2.411 0 0 0-.751 1.069 4.104 4.104 0 0 0-.243 1.427c0 .51.081.984.243 1.421.163.438.413.791.751 1.059.338.269.769.403 1.293.403Zm8.134 1.054c-.636 0-1.198-.161-1.685-.482-.487-.325-.868-.782-1.143-1.372-.276-.594-.413-1.295-.413-2.103 0-.802.137-1.498.413-2.088.275-.59.657-1.046 1.148-1.368.491-.321 1.057-.482 1.7-.482.497 0 .89.083 1.179.249.291.162.513.348.666.557.156.205.276.374.363.507h.099v-3.759h1.173V161h-1.133v-1.173h-.139a7.881 7.881 0 0 1-.368.527 2.182 2.182 0 0 1-.681.561c-.295.163-.688.244-1.179.244Zm.159-1.054c.471 0 .869-.123 1.194-.368.324-.248.571-.591.74-1.029.169-.441.254-.949.254-1.526 0-.57-.083-1.069-.249-1.497-.165-.431-.411-.765-.735-1.004-.325-.242-.726-.363-1.204-.363-.497 0-.911.128-1.242.383-.329.252-.575.595-.741 1.029a4.08 4.08 0 0 0-.244 1.452c0 .543.083 1.037.249 1.481.169.441.417.792.746 1.054.331.259.742.388 1.232.388Z" fill="#898EA2"/><path d="M290.341 208.318c-1.689 0-3.189-.284-4.5-.852-1.303-.568-2.326-1.345-3.068-2.33-.735-.992-1.099-2.117-1.091-3.375a5.577 5.577 0 0 1 .636-2.693 6 6 0 0 1 1.75-2.045 5.64 5.64 0 0 1 2.477-1.057v-.159c-1.197-.265-2.166-.875-2.909-1.83-.734-.962-1.098-2.072-1.091-3.329-.007-1.197.326-2.265 1-3.205.675-.939 1.599-1.678 2.773-2.216 1.174-.545 2.515-.818 4.023-.818 1.492 0 2.822.273 3.989.818 1.174.538 2.098 1.277 2.772 2.216.682.94 1.023 2.008 1.023 3.205 0 1.257-.375 2.367-1.125 3.329a4.908 4.908 0 0 1-2.875 1.83v.159a5.485 5.485 0 0 1 2.455 1.057 6.01 6.01 0 0 1 1.75 2.045c.439.818.659 1.716.659 2.693a5.491 5.491 0 0 1-1.114 3.375c-.742.985-1.765 1.762-3.068 2.33-1.296.568-2.784.852-4.466.852Zm0-3.25c.871 0 1.629-.148 2.273-.443.644-.303 1.144-.727 1.5-1.273.356-.545.538-1.174.545-1.886-.007-.743-.201-1.398-.579-1.966a3.804 3.804 0 0 0-1.535-1.352c-.643-.326-1.378-.489-2.204-.489-.833 0-1.576.163-2.227.489a3.882 3.882 0 0 0-1.546 1.352c-.371.568-.553 1.223-.545 1.966-.008.712.166 1.341.522 1.886.357.538.857.959 1.5 1.262.652.303 1.417.454 2.296.454Zm0-10.602c.712 0 1.341-.144 1.886-.432a3.288 3.288 0 0 0 1.307-1.204c.318-.516.481-1.11.489-1.785-.008-.666-.167-1.25-.478-1.75a3.08 3.08 0 0 0-1.295-1.17c-.553-.28-1.189-.42-1.909-.42-.735 0-1.383.14-1.943.42a3.088 3.088 0 0 0-1.296 1.17c-.303.5-.45 1.084-.443 1.75-.007.675.144 1.269.455 1.785.318.507.753.909 1.306 1.204.561.288 1.201.432 1.921.432Zm20.736 13.852c-1.637 0-3.091-.28-4.364-.841-1.265-.56-2.265-1.341-3-2.341-.735-1-1.125-2.155-1.17-3.466h4.272c.038.629.247 1.178.625 1.648.379.462.883.822 1.512 1.08.628.257 1.333.386 2.113.386.834 0 1.572-.144 2.216-.432.644-.295 1.148-.704 1.512-1.227.363-.523.541-1.125.534-1.807.007-.704-.175-1.326-.546-1.863-.371-.538-.909-.959-1.613-1.262-.697-.303-1.538-.454-2.523-.454h-2.057v-3.25h2.057c.81 0 1.519-.141 2.125-.421.614-.28 1.095-.674 1.443-1.182.349-.515.519-1.109.511-1.784.008-.659-.14-1.231-.443-1.716a2.988 2.988 0 0 0-1.261-1.147c-.538-.273-1.171-.409-1.898-.409-.712 0-1.371.128-1.977.386a3.594 3.594 0 0 0-1.466 1.102c-.371.47-.568 1.03-.591 1.682h-4.057c.031-1.303.406-2.447 1.125-3.432.728-.992 1.697-1.765 2.909-2.318 1.212-.561 2.572-.841 4.08-.841 1.553 0 2.901.292 4.045.875 1.152.576 2.042 1.352 2.671 2.33.629.977.943 2.056.943 3.238.008 1.311-.379 2.409-1.159 3.296-.773.886-1.788 1.466-3.046 1.738v.182c1.637.227 2.891.834 3.762 1.818.879.978 1.314 2.194 1.307 3.648 0 1.303-.372 2.47-1.114 3.5-.735 1.023-1.75 1.826-3.045 2.409-1.288.584-2.766.875-4.432.875Zm26.537-24.682-7.5 27.864h-3.603l7.5-27.864h3.603Zm16.92 1.091V208h-4.216v-19.17h-.136l-5.443 3.477v-3.864l5.784-3.716h4.011Zm14.511 23.716c-1.871 0-3.477-.473-4.818-1.42-1.333-.955-2.36-2.33-3.079-4.125-.712-1.803-1.068-3.974-1.068-6.512.007-2.538.367-4.697 1.079-6.477.72-1.788 1.746-3.151 3.08-4.091 1.341-.939 2.943-1.409 4.806-1.409 1.864 0 3.466.47 4.807 1.409 1.341.94 2.368 2.303 3.08 4.091.72 1.788 1.079 3.947 1.079 6.477 0 2.546-.359 4.72-1.079 6.523-.712 1.796-1.739 3.167-3.08 4.114-1.333.947-2.935 1.42-4.807 1.42Zm0-3.557c1.455 0 2.603-.716 3.444-2.147.848-1.44 1.272-3.557 1.272-6.353 0-1.848-.193-3.401-.579-4.659-.387-1.257-.932-2.204-1.637-2.841a3.58 3.58 0 0 0-2.5-.966c-1.447 0-2.59.72-3.431 2.16-.841 1.431-1.266 3.534-1.273 6.306-.008 1.856.178 3.417.557 4.682.386 1.265.932 2.22 1.636 2.864.705.636 1.542.954 2.511.954Zm21.344 3.557c-1.871 0-3.477-.473-4.818-1.42-1.333-.955-2.36-2.33-3.08-4.125-.712-1.803-1.068-3.974-1.068-6.512.008-2.538.368-4.697 1.08-6.477.72-1.788 1.746-3.151 3.079-4.091 1.341-.939 2.944-1.409 4.807-1.409 1.864 0 3.466.47 4.807 1.409 1.341.94 2.367 2.303 3.08 4.091.719 1.788 1.079 3.947 1.079 6.477 0 2.546-.36 4.72-1.079 6.523-.713 1.796-1.739 3.167-3.08 4.114-1.333.947-2.936 1.42-4.807 1.42Zm0-3.557c1.455 0 2.602-.716 3.443-2.147.849-1.44 1.273-3.557 1.273-6.353 0-1.848-.193-3.401-.579-4.659-.387-1.257-.932-2.204-1.637-2.841a3.582 3.582 0 0 0-2.5-.966c-1.447 0-2.591.72-3.432 2.16-.841 1.431-1.265 3.534-1.272 6.306-.008 1.856.178 3.417.556 4.682.387 1.265.932 2.22 1.637 2.864.704.636 1.542.954 2.511.954Z" fill="#1554FF"/><g clip-path="url(#a)"><rect x="24" y="24" width="197" height="248" rx="4" fill="#fff"/><g clip-path="url(#b)"><path d="M39 40h168v84H39V40Z" fill="#fff"/><path d="M39 43a3 3 0 0 1 3-3h162a3 3 0 0 1 3 3v6a3 3 0 0 1-3 3H42a3 3 0 0 1-3-3v-6Z" fill="#1554FF"/><rect x=".188" y="-.188" width="155.625" height=".375" rx=".188" transform="matrix(1 0 0 -1 45 76.375)" stroke="#EDF0F5" stroke-width=".375"/><rect x=".188" y="-.188" width="155.625" height=".375" rx=".188" transform="matrix(1 0 0 -1 45 101.125)" stroke="#EDF0F5" stroke-width=".375"/><path d="M78 62.5a3 3 0 0 1 3-3h12a3 3 0 0 1 3 3v3a3 3 0 0 1-3 3H81a3 3 0 0 1-3-3v-3Zm30 0a3 3 0 0 1 3-3h24a3 3 0 0 1 3 3v3a3 3 0 0 1-3 3h-24a3 3 0 0 1-3-3v-3Z" fill="#EDF0F5"/><path d="M183 62.5a3 3 0 0 1 3-3h12a3 3 0 0 1 3 3v3a3 3 0 0 1-3 3h-12a3 3 0 0 1-3-3v-3Z" fill="#1554FF"/><circle cx="49.5" cy="64" r="4.5" fill="#1554FF"/><path d="M78 87.25a3 3 0 0 1 3-3h12a3 3 0 0 1 3 3v3a3 3 0 0 1-3 3H81a3 3 0 0 1-3-3v-3Zm30 0a3 3 0 0 1 3-3h24a3 3 0 0 1 3 3v3a3 3 0 0 1-3 3h-24a3 3 0 0 1-3-3v-3Z" fill="#EDF0F5"/><path d="M183 87.25a3 3 0 0 1 3-3h12a3 3 0 0 1 3 3v3a3 3 0 0 1-3 3h-12a3 3 0 0 1-3-3v-3Z" fill="#1554FF"/><circle cx="49.5" cy="88.75" r="4.5" fill="#1554FF"/><path d="M78 112a3 3 0 0 1 3-3h12a3 3 0 0 1 3 3v3a3 3 0 0 1-3 3H81a3 3 0 0 1-3-3v-3Zm30 0a3 3 0 0 1 3-3h24a3 3 0 0 1 3 3v3a3 3 0 0 1-3 3h-24a3 3 0 0 1-3-3v-3Z" fill="#EDF0F5"/><path d="M183 112a3 3 0 0 1 3-3h12a3 3 0 0 1 3 3v3a3 3 0 0 1-3 3h-12a3 3 0 0 1-3-3v-3Z" fill="#1554FF"/><circle cx="49.5" cy="113.5" r="4.5" fill="#1554FF"/></g><rect x=".188" y="-.188" width="155.625" height=".375" rx=".188" transform="matrix(1 0 0 -1 45 126.375)" stroke="#EDF0F5" stroke-width=".375"/><rect x=".188" y="-.188" width="155.625" height=".375" rx=".188" transform="matrix(1 0 0 -1 45 201.375)" stroke="#EDF0F5" stroke-width=".375"/><rect x=".188" y="-.188" width="155.625" height=".375" rx=".188" transform="matrix(1 0 0 -1 45 151.875)" stroke="#EDF0F5" stroke-width=".375"/><rect x=".188" y="-.188" width="155.625" height=".375" rx=".188" transform="matrix(1 0 0 -1 45 176.625)" stroke="#EDF0F5" stroke-width=".375"/><path d="M78 138a3 3 0 0 1 3-3h12a3 3 0 0 1 3 3v3a3 3 0 0 1-3 3H81a3 3 0 0 1-3-3v-3Zm30 0a3 3 0 0 1 3-3h24a3 3 0 0 1 3 3v3a3 3 0 0 1-3 3h-24a3 3 0 0 1-3-3v-3Z" fill="#EDF0F5"/><path d="M183 138a3 3 0 0 1 3-3h12a3 3 0 0 1 3 3v3a3 3 0 0 1-3 3h-12a3 3 0 0 1-3-3v-3Z" fill="#1554FF"/><circle cx="49.5" cy="139.5" r="4.5" fill="#1554FF"/><path d="M78 162.75a3 3 0 0 1 3-3h12a3 3 0 0 1 3 3v3a3 3 0 0 1-3 3H81a3 3 0 0 1-3-3v-3Zm30 0a3 3 0 0 1 3-3h24a3 3 0 0 1 3 3v3a3 3 0 0 1-3 3h-24a3 3 0 0 1-3-3v-3Z" fill="#EDF0F5"/><path d="M183 162.75a3 3 0 0 1 3-3h12a3 3 0 0 1 3 3v3a3 3 0 0 1-3 3h-12a3 3 0 0 1-3-3v-3Z" fill="#1554FF"/><circle cx="49.5" cy="164.25" r="4.5" fill="#1554FF"/><path d="M78 187.5a3 3 0 0 1 3-3h12a3 3 0 0 1 3 3v3a3 3 0 0 1-3 3H81a3 3 0 0 1-3-3v-3Zm30 0a3 3 0 0 1 3-3h24a3 3 0 0 1 3 3v3a3 3 0 0 1-3 3h-24a3 3 0 0 1-3-3v-3Z" fill="#EDF0F5"/><path d="M183 187.5a3 3 0 0 1 3-3h12a3 3 0 0 1 3 3v3a3 3 0 0 1-3 3h-12a3 3 0 0 1-3-3v-3Z" fill="#1554FF"/><circle cx="49.5" cy="189" r="4.5" fill="#1554FF"/><rect x=".188" y="-.188" width="155.625" height=".375" rx=".188" transform="matrix(1 0 0 -1 45 226.875)" stroke="#EDF0F5" stroke-width=".375"/><rect x=".188" y="-.188" width="155.625" height=".375" rx=".188" transform="matrix(1 0 0 -1 45 251.625)" stroke="#EDF0F5" stroke-width=".375"/><path d="M78 213a3 3 0 0 1 3-3h12a3 3 0 0 1 3 3v3a3 3 0 0 1-3 3H81a3 3 0 0 1-3-3v-3Zm30 0a3 3 0 0 1 3-3h24a3 3 0 0 1 3 3v3a3 3 0 0 1-3 3h-24a3 3 0 0 1-3-3v-3Z" fill="#EDF0F5"/><path d="M183 213a3 3 0 0 1 3-3h12a3 3 0 0 1 3 3v3a3 3 0 0 1-3 3h-12a3 3 0 0 1-3-3v-3Z" fill="#1554FF"/><circle cx="49.5" cy="214.5" r="4.5" fill="#1554FF"/><path d="M78 237.75a3 3 0 0 1 3-3h12a3 3 0 0 1 3 3v3a3 3 0 0 1-3 3H81a3 3 0 0 1-3-3v-3Zm30 0a3 3 0 0 1 3-3h24a3 3 0 0 1 3 3v3a3 3 0 0 1-3 3h-24a3 3 0 0 1-3-3v-3Z" fill="#EDF0F5"/><path d="M183 237.75a3 3 0 0 1 3-3h12a3 3 0 0 1 3 3v3a3 3 0 0 1-3 3h-12a3 3 0 0 1-3-3v-3Z" fill="#1554FF"/><circle cx="49.5" cy="239.25" r="4.5" fill="#1554FF"/></g><defs><clipPath id="a"><rect x="24" y="24" width="197" height="248" rx="4" fill="#fff"/></clipPath><clipPath id="b"><path d="M39 40h168v84H39V40Z" fill="#fff"/></clipPath></defs></svg>