<svg width="24" height="24" viewBox="0 0 24 24" fill="none" xmlns="http://www.w3.org/2000/svg">
<rect x="15.4004" y="20.7002" width="2.4" height="2.4" rx="1.2" transform="rotate(-180 15.4004 20.7002)" fill="#898EA2"/>
<rect x="11" y="20.7002" width="2.4" height="2.4" rx="1.2" transform="rotate(-180 11 20.7002)" fill="#898EA2"/>
<rect x="15.4004" y="15.3003" width="2.4" height="2.4" rx="1.2" transform="rotate(-180 15.4004 15.3003)" fill="#898EA2"/>
<rect x="15.4004" y="9.8999" width="2.4" height="2.4" rx="1.2" transform="rotate(-180 15.4004 9.8999)" fill="#898EA2"/>
<rect x="11" y="15.3003" width="2.4" height="2.4" rx="1.2" transform="rotate(-180 11 15.3003)" fill="#898EA2"/>
<rect x="11" y="9.8999" width="2.4" height="2.4" rx="1.2" transform="rotate(-180 11 9.8999)" fill="#898EA2"/>
<rect x="15.4004" y="4.5" width="2.4" height="2.4" rx="1.2" transform="rotate(-180 15.4004 4.5)" fill="#898EA2"/>
<rect x="11" y="4.5" width="2.4" height="2.4" rx="1.2" transform="rotate(-180 11 4.5)" fill="#898EA2"/>
</svg>
