<svg width="24" height="24" viewBox="0 0 24 24" fill="none" xmlns="http://www.w3.org/2000/svg">
<path d="M11 6.55556H8.11111V6C8.11111 5.44771 7.6634 5 7.11111 5H6C5.44771 5 5 5.44772 5 6V18C5 18.5523 5.44772 19 6 19H7.11111C7.6634 19 8.11111 18.5523 8.11111 18V17.0556H11C11.5523 17.0556 12 16.6078 12 16.0556V14.2105H18C18.5523 14.2105 19 13.7628 19 13.2105V10.4211C19 9.86877 18.5523 9.42105 18 9.42105H12V7.55556C12 7.00327 11.5523 6.55556 11 6.55556Z" stroke="#9DA1B5" stroke-width="1.5"/>
</svg>
