<svg width="12" height="8" viewBox="0 0 12 8" fill="none" xmlns="http://www.w3.org/2000/svg">
<path d="M7.5 4.75C7.91421 4.75 8.25 4.41421 8.25 4C8.25 3.58579 7.91421 3.25 7.5 3.25L7.5 4.75ZM1.5 4L0.969671 3.46967C0.676777 3.76256 0.676777 4.23744 0.96967 4.53033L1.5 4ZM3.46967 7.03033C3.76256 7.32322 4.23744 7.32322 4.53033 7.03033C4.82322 6.73744 4.82322 6.26256 4.53033 5.96967L3.46967 7.03033ZM4.53033 2.03033C4.82322 1.73744 4.82322 1.26256 4.53033 0.969669C4.23744 0.676776 3.76256 0.676776 3.46967 0.969669L4.53033 2.03033ZM10.5 4.75C10.9142 4.75 11.25 4.41421 11.25 4C11.25 3.58579 10.9142 3.25 10.5 3.25L10.5 4.75ZM7.5 3.25L1.5 3.25L1.5 4.75L7.5 4.75L7.5 3.25ZM0.96967 4.53033L3.46967 7.03033L4.53033 5.96967L2.03033 3.46967L0.96967 4.53033ZM2.03033 4.53033L4.53033 2.03033L3.46967 0.969669L0.969671 3.46967L2.03033 4.53033ZM1.5 4.75L10.5 4.75L10.5 3.25L1.5 3.25L1.5 4.75Z" fill="#9DA1B5"/>
</svg>
