<svg width="16" height="16" viewBox="0 0 16 16" fill="none" xmlns="http://www.w3.org/2000/svg">
<path d="M8.75 3C8.75 2.58579 8.41421 2.25 8 2.25C7.58579 2.25 7.25 2.58579 7.25 3H8.75ZM7.25 13C7.25 13.4142 7.58579 13.75 8 13.75C8.41421 13.75 8.75 13.4142 8.75 13H7.25ZM7.25 3V13H8.75V3H7.25Z" fill="#1554FF"/>
<path d="M13 8.75C13.4142 8.75 13.75 8.41421 13.75 8C13.75 7.58579 13.4142 7.25 13 7.25L13 8.75ZM3 7.25C2.58579 7.25 2.25 7.58579 2.25 8C2.25 8.41421 2.58579 8.75 3 8.75L3 7.25ZM13 7.25L3 7.25L3 8.75L13 8.75L13 7.25Z" fill="#1554FF"/>
</svg>
