<svg width="720" height="411" viewBox="0 0 720 411" fill="none" xmlns="http://www.w3.org/2000/svg">
<g opacity="0.2" clip-path="url(#clip0_2_2096)">
<path d="M485 432L455.673 448.868L-56.2327 155.853L-26.0122 138.541L485 432Z" fill="url(#paint0_linear_2_2096)"/>
<path d="M447.233 604.459L417.905 621.327L-94.0001 328.312L-63.7795 311L447.233 604.459Z" fill="url(#paint1_linear_2_2096)"/>
<path d="M830.361 231.807V262.13L207.221 626.96L177 609.5L830.361 231.807Z" fill="url(#paint2_linear_2_2096)"/>
<path d="M445.388 378.645L417.838 394.715L428.259 400.781L455.958 384.711L445.388 378.645Z" fill="#3F77FF"/>
<path d="M560.781 176.933L307.088 334.555L317.658 340.77L571.5 182.999L560.781 176.933Z" fill="url(#paint3_linear_2_2096)"/>
<path opacity="0.1" d="M697.268 414.562L739.83 390.157L684.664 358.43L642.103 382.835L697.268 414.562Z" fill="#1E232C"/>
<path d="M696.941 299.536L726.898 282.29L688.101 260L658.145 277.246L696.941 299.536Z" fill="#C8DFFA"/>
<path d="M688.429 264.395L720.35 282.78L721.332 282.292L688.429 263.256L664.038 277.086L665.02 277.737L688.429 264.395Z" fill="#C8DFFA"/>
<path d="M688.429 264.395L720.35 282.78L721.332 282.292L688.429 263.256L664.038 277.086L665.02 277.737L688.429 264.395Z" fill="#3A8BEB"/>
<path d="M665.02 277.736L688.265 264.557L720.35 282.78L697.105 296.121L665.02 277.736Z" fill="#72A9FD"/>
<path d="M696.941 406.108L658.145 383.818V277.25L696.941 299.54V406.108Z" fill="#91B9F6"/>
<path d="M726.898 389.022L696.941 406.105V299.537L726.898 282.291V389.022Z" fill="#3A8BEB"/>
<path d="M662.564 288.638L663.219 289.126V304.095L662.564 303.769V288.638Z" fill="#3A8BEB"/>
<path d="M669.767 292.87V307.838L663.219 304.096V289.128L669.767 292.87Z" fill="#C8DFFA"/>
<path d="M681.389 310.597L675.987 313.688V306.204L681.389 303.113V310.597Z" fill="#3A8BEB"/>
<path d="M658.145 297.257L652.743 300.348V293.027L658.145 289.935V297.257Z" fill="#3A8BEB"/>
<path d="M675.988 313.689L652.088 300.023V292.538L675.988 306.205V313.689Z" fill="#72A9FD"/>
<path d="M675.988 305.393L653.561 292.539L658.145 289.936V288.96L652.579 292.214L652.088 292.539L675.988 306.206L676.642 305.881L681.39 303.115L680.571 302.789L675.988 305.393Z" fill="#C8DFFA"/>
<path d="M662.564 311.416L663.219 311.904V326.872L662.564 326.384V311.416Z" fill="#3A8BEB"/>
<path d="M669.767 315.485V330.453L663.219 326.874V311.906L669.767 315.485Z" fill="#C8DFFA"/>
<path d="M681.389 333.379L675.987 336.47V328.986L681.389 325.895V333.379Z" fill="#3A8BEB"/>
<path d="M658.145 320.039L652.743 323.13V315.646L658.145 312.555V320.039Z" fill="#3A8BEB"/>
<path d="M675.988 336.471L652.088 322.642V315.32L675.988 328.987V336.471Z" fill="#72A9FD"/>
<path d="M675.988 328.174L653.561 315.321L658.145 312.555V311.742L652.579 314.996L652.088 315.321L675.988 328.988L676.642 328.663L681.39 325.897L680.571 325.571L675.988 328.174Z" fill="#C8DFFA"/>
<path d="M662.564 334.194L663.219 334.519V349.65L662.564 349.162V334.194Z" fill="#3A8BEB"/>
<path d="M669.767 338.259V353.227L663.219 349.648V334.517L669.767 338.259Z" fill="#C8DFFA"/>
<path d="M681.389 355.992L675.987 359.083V351.762L681.389 348.67V355.992Z" fill="#3A8BEB"/>
<path d="M658.145 342.654L652.743 345.745V338.424L658.145 335.332V342.654Z" fill="#3A8BEB"/>
<path d="M675.988 359.086L652.088 345.419V338.098L675.988 351.765V359.086Z" fill="#72A9FD"/>
<path d="M675.988 350.95L653.561 338.097L658.145 335.331V334.518L652.579 337.772L652.088 338.097L675.988 351.764L676.642 351.276L681.39 348.672L680.571 348.184L675.988 350.95Z" fill="#C8DFFA"/>
<path d="M662.564 356.975L663.219 357.301V372.269L662.564 371.944V356.975Z" fill="#3A8BEB"/>
<path d="M669.767 361.042V376.011L663.219 372.269V357.3L669.767 361.042Z" fill="#C8DFFA"/>
<path d="M681.389 378.774L675.987 381.865V374.544L681.389 371.452V378.774Z" fill="#3A8BEB"/>
<path d="M658.145 365.434L652.743 368.525V361.203L658.145 358.112V365.434Z" fill="#3A8BEB"/>
<path d="M675.988 381.868L652.088 368.201V360.717L675.988 374.547V381.868Z" fill="#72A9FD"/>
<path d="M675.988 373.732L653.561 360.716L658.145 358.113V357.299L652.579 360.553L652.088 360.716L675.988 374.545L676.642 374.057L681.39 371.454L680.571 370.966L675.988 373.732Z" fill="#C8DFFA"/>
<path d="M706.435 300.512L705.944 300.675V310.762L706.435 310.437V300.512Z" fill="#3A8BEB"/>
<path d="M701.688 303.276V313.201L705.944 310.76V300.673L701.688 303.276Z" fill="#C8DFFA"/>
<path d="M714.457 295.799L714.129 296.124V306.049L714.457 305.886V295.799Z" fill="#3A8BEB"/>
<path d="M709.709 298.562V308.65L714.129 306.047V296.122L709.709 298.562Z" fill="#C8DFFA"/>
<path d="M717.894 293.843V303.93L722.15 301.49V291.402L717.894 293.843Z" fill="#C8DFFA"/>
<path d="M706.435 323.126L705.944 323.452V333.539L706.435 333.214V323.126Z" fill="#3A8BEB"/>
<path d="M701.688 325.89V335.977L705.944 333.537V323.449L701.688 325.89Z" fill="#C8DFFA"/>
<path d="M714.456 318.578L714.129 318.741V328.828L714.456 328.665V318.578Z" fill="#3A8BEB"/>
<path d="M709.709 321.342V331.266L714.129 328.826V318.738L709.709 321.342Z" fill="#C8DFFA"/>
<path d="M717.894 316.621V326.709L722.15 324.268V314.181L717.894 316.621Z" fill="#C8DFFA"/>
<path d="M706.435 345.911L705.944 346.236V356.161L706.435 355.998V345.911Z" fill="#3A8BEB"/>
<path d="M701.688 348.674V358.761L705.944 356.158V346.234L701.688 348.674Z" fill="#C8DFFA"/>
<path d="M714.457 341.358L714.129 341.52V351.608L714.457 351.282V341.358Z" fill="#3A8BEB"/>
<path d="M709.709 343.959V354.046L714.129 351.606V341.518L709.709 343.959Z" fill="#C8DFFA"/>
<path d="M717.894 339.401V349.326L722.15 346.886V336.961L717.894 339.401Z" fill="#C8DFFA"/>
<path d="M706.435 368.684L705.944 368.847V378.934L706.435 378.771V368.684Z" fill="#3A8BEB"/>
<path d="M701.688 371.448V381.372L705.944 378.932V368.844L701.688 371.448Z" fill="#C8DFFA"/>
<path d="M714.456 363.972L714.129 364.298V374.385L714.456 374.06V363.972Z" fill="#3A8BEB"/>
<path d="M709.709 366.736V376.823L714.129 374.383V364.295L709.709 366.736Z" fill="#C8DFFA"/>
<path d="M717.894 362.177V372.102L722.15 369.661V359.574L717.894 362.177Z" fill="#C8DFFA"/>
<path opacity="0.1" d="M658.79 248.856L601.711 220.653L582.141 202.931L538 228.433L562.788 243.021L580.945 232.647L634.436 263.336L658.79 248.856Z" fill="#1E232C"/>
<path d="M580.945 228.543L563.441 238.593V218.494L580.945 208.444V228.543Z" fill="#3A8BEB"/>
<path d="M563.441 238.593L545.936 228.543V208.444L563.441 218.494V238.593Z" fill="#72A9FD"/>
<path d="M633.567 258.692L580.945 228.543V208.444L633.567 238.593V258.692Z" fill="#72A9FD"/>
<path d="M633.566 238.594L580.945 208.446L598.558 198.396L651.071 228.545L633.566 238.594Z" fill="#C8DFFA"/>
<path d="M651.07 248.642L633.566 258.691V238.592L651.07 228.543V248.642Z" fill="#3A8BEB"/>
<path d="M563.441 218.495L545.936 208.445L580.945 188.346L598.558 198.396L563.441 218.495Z" fill="#C8DFFA"/>
<path d="M633.566 245.613L648.026 237.617V235.023L633.566 243.02V245.613Z" fill="#C8DFFA"/>
<path d="M647.374 235.348V237.941L633.566 245.613V246.37L648.026 238.373V237.617V235.023L647.374 235.348Z" fill="#3A8BEB"/>
<path d="M633.566 243.02L584.642 214.925V217.518L633.566 245.613V243.02Z" fill="#C8DFFA"/>
<path d="M585.294 217.95V215.249L584.642 214.925V217.518V218.274L633.566 246.37V245.613L585.294 217.95Z" fill="#3A8BEB"/>
<path d="M633.566 253.07L648.026 245.074V242.481L633.566 250.477V253.07Z" fill="#C8DFFA"/>
<path d="M647.374 242.913V245.506L633.566 253.07V253.827L648.026 245.83V245.074V242.481L647.374 242.913Z" fill="#3A8BEB"/>
<path d="M633.566 250.476L584.642 222.488V225.082L633.566 253.069V250.476Z" fill="#C8DFFA"/>
<path d="M585.294 225.406V222.812L584.642 222.488V225.082V225.838L633.566 253.825V253.069L585.294 225.406Z" fill="#3A8BEB"/>
<path d="M575.943 231.462L568.877 235.46V220.656L575.943 216.658V231.462Z" fill="#C8DFFA"/>
<path d="M574.748 217.306V232.111L575.944 231.462V216.658L574.748 217.306Z" fill="#3A8BEB"/>
<path d="M548.655 215.899V223.787L549.525 224.327V216.439L548.655 215.899Z" fill="#3A8BEB"/>
<path d="M560.288 222.597L549.525 216.438V224.326L560.288 230.485V222.597Z" fill="#C8DFFA"/>
<path d="M563.44 203.044L556.265 207.151L563.44 211.257L570.725 207.151L563.44 203.044Z" fill="#72A9FD"/>
<path d="M570.725 207.15V208.015L563.441 212.229V211.257L570.725 207.15Z" fill="#3A8BEB"/>
<path d="M556.265 207.15V208.015L563.44 212.229V211.257L556.265 207.15Z" fill="#305CB6"/>
<path d="M598.993 201.527L586.925 208.442L633.349 235.025L645.2 228.001L598.993 201.527Z" fill="#72A9FD"/>
<path d="M644.112 228.433L645.2 228.001L598.993 201.527L586.925 208.442L587.795 208.983L598.993 202.607L644.112 228.433Z" fill="#3A8BEB"/>
<path d="M599.404 412.615L564.42 392.493L609.825 366.451L644.958 386.574L599.404 412.615Z" fill="#98BBFF"/>
<path d="M633.942 387.607L636.026 386.424L609.08 371.184L573.054 391.898L575.138 393.082L609.08 373.551L633.942 387.607Z" fill="#3A8BEB"/>
<path d="M633.942 387.609L609.081 373.553L575.138 393.084L599.702 407.14L633.942 387.609Z" fill="#72A9FD"/>
<path d="M599.404 476.241L644.958 450.2V386.576L599.404 412.618V476.241Z" fill="#3A8BEB"/>
<path d="M564.42 456.116L599.404 476.239V412.615L564.42 392.492V456.116Z" fill="#72A9FD"/>
<path d="M624.265 398.409V462.033L627.094 460.405V396.781L624.265 398.409Z" fill="#C8DFFA"/>
<path d="M633.495 393.083V456.706L636.324 455.079V391.455L633.495 393.083Z" fill="#C8DFFA"/>
<path d="M615.482 403.44V467.064L618.311 465.436V401.812L615.482 403.44Z" fill="#C8DFFA"/>
<path d="M615.482 403.44V467.064L618.311 465.436V401.812L615.482 403.44Z" fill="#C8DFFA"/>
<path d="M606.699 408.469V472.093L609.527 470.466V406.842L606.699 408.469Z" fill="#C8DFFA"/>
<path d="M573.501 412.173L568.886 409.51V404.627L573.501 407.29V412.173Z" fill="#C8DFFA"/>
<path d="M583.177 417.798L578.413 414.986V410.104L583.177 412.767V417.798Z" fill="#C8DFFA"/>
<path opacity="0.1" d="M438 449.019L473.962 469.706L545.887 428.332L509.925 407.767L438 449.019Z" fill="#1E232C"/>
<path d="M500.811 356.602L474.085 341.423L500.688 326L527.536 341.179L500.811 356.602Z" fill="#C8DFFA"/>
<path d="M474.085 341.423L474.332 402.872L501.18 418.051L500.811 356.602L474.085 341.423Z" fill="#72A9FD"/>
<path d="M527.536 341.179L500.81 356.603L501.18 418.052L474.577 433.475L474.701 464.2L501.426 448.776L528.028 433.23L527.536 341.179Z" fill="#3A8BEB"/>
<path d="M474.577 433.477L447.729 418.298L474.331 402.875L501.18 418.053L474.577 433.477Z" fill="#98BBFF"/>
<path d="M488.987 335.546L480.735 340.32L488.987 344.972L497.239 340.198L488.987 335.546Z" fill="#72A9FD"/>
<path d="M497.239 340.198V341.422L488.987 346.196V344.972L497.239 340.198Z" fill="#3A8BEB"/>
<path d="M480.735 340.319V341.543L488.987 346.195V344.971L480.735 340.319Z" fill="#72A9FD"/>
<path d="M487.141 382.312C486.894 382.067 486.525 381.944 486.279 381.7C482.338 379.496 479.259 381.332 479.259 385.739L479.382 405.569L481.106 406.549L480.983 386.718C480.983 382.679 483.569 380.843 487.141 382.312Z" fill="#3A8BEB"/>
<path d="M487.141 382.313C483.692 380.844 480.983 382.68 480.983 386.842L481.106 406.672L493.422 413.649L493.299 393.819C493.299 389.657 490.589 384.761 487.141 382.313Z" fill="#C8DFFA"/>
<path d="M510.539 443.392L508.815 444.371L508.199 352.32L510.047 351.341L510.539 443.392Z" fill="#3A8BEB"/>
<path d="M515.958 440.209L514.111 441.311L513.618 349.26L515.466 348.158L515.958 440.209Z" fill="#3A8BEB"/>
<path d="M521.378 437.026L519.53 438.128L519.038 346.077L520.885 344.975L521.378 437.026Z" fill="#3A8BEB"/>
<path d="M510.539 443.395L508.815 444.374L508.322 356.362L510.047 355.261L510.539 443.395Z" fill="#C8DFFA"/>
<path d="M515.958 440.211L514.111 441.313L513.741 353.178L515.466 352.199L515.958 440.211Z" fill="#C8DFFA"/>
<path d="M521.378 437.028L519.53 438.13L519.038 349.996L520.885 349.016L521.378 437.028Z" fill="#C8DFFA"/>
<path opacity="0.1" d="M74.4095 317.701L30.9396 342.707L-56.0003 292.696L-12.5304 267.838L74.4095 317.701Z" fill="#1E232C"/>
<path d="M-1.51396 205.991L30.7907 187.643L-1.36509 169L-33.8187 187.347L-1.51396 205.991Z" fill="#C8DFFA"/>
<path d="M30.7907 187.643L30.4929 261.92L-1.96065 280.267L-1.51403 205.99L30.7907 187.643Z" fill="#72A9FD"/>
<path d="M-33.8182 187.348L-1.51352 205.991L-1.96013 280.268L30.1957 298.911L30.0468 336.05L-2.25787 317.407L-34.4137 298.615L-33.8182 187.348Z" fill="#3A8BEB"/>
<path d="M30.0464 336.048L62.5 317.701L62.6488 280.562L30.1953 298.91L30.0464 336.048Z" fill="#72A9FD"/>
<path d="M30.1953 298.912L62.6488 280.565L30.493 261.922L-1.96058 280.269L30.1953 298.912Z" fill="#98BBFF"/>
<path d="M12.7773 180.539L22.7516 186.31L12.7773 191.932L2.80306 186.162L12.7773 180.539Z" fill="#72A9FD"/>
<path d="M2.80298 186.162V187.642L12.7773 193.412V191.933L2.80298 186.162Z" fill="#3A8BEB"/>
<path d="M22.7516 186.309V187.788L12.7773 193.411V191.931L22.7516 186.309Z" fill="#72A9FD"/>
<path d="M15.0106 237.066C15.3084 236.77 15.755 236.622 16.0527 236.326C20.8165 233.662 24.5382 235.882 24.5382 241.209L24.3894 265.178L22.3052 266.362L22.4541 242.392C22.4541 237.51 19.3278 235.29 15.0106 237.066Z" fill="#3A8BEB"/>
<path d="M15.0105 237.066C19.1789 235.291 22.454 237.51 22.454 242.541L22.3051 266.511L7.41818 274.945L7.56706 250.975C7.56706 245.944 10.8422 240.026 15.0105 237.066Z" fill="#C8DFFA"/>
<path d="M53.121 323.032L41.5092 329.542V308.531L53.2699 301.873L53.121 323.032Z" fill="#C8DFFA"/>
<path d="M4.58936 300.685L0.123239 298.022V293.287L4.58936 295.95V300.685Z" fill="#C8DFFA"/>
<path d="M13.6704 306.011L9.20427 303.348V298.613L13.8192 301.277L13.6704 306.011Z" fill="#C8DFFA"/>
<path d="M22.9003 311.339L18.2853 308.676L18.4342 303.941L22.9003 306.605V311.339Z" fill="#C8DFFA"/>
<path d="M4.58936 310.453L-0.0256167 307.79V303.203L4.58936 305.718V310.453Z" fill="#C8DFFA"/>
<path d="M13.6703 315.781L9.20422 313.118V308.383L13.6703 311.046V315.781Z" fill="#C8DFFA"/>
<path d="M22.7514 321.105L18.2853 318.442V313.707L22.9003 316.37L22.7514 321.105Z" fill="#C8DFFA"/>
<path opacity="0.1" d="M371.846 460.622L417.698 434.285L358.299 400.254L312.447 426.443L371.846 460.622Z" fill="#1E232C"/>
<path d="M371.995 455.149L321.23 426V397.443L371.995 426.592V455.149Z" fill="#72A9FD"/>
<path d="M399.983 439.166L371.995 455.146V426.589L399.983 410.461V439.166Z" fill="#3A8BEB"/>
<path d="M371.995 431.919L321.23 402.771V400.699L371.995 429.848V431.919Z" fill="#3A8BEB"/>
<path d="M349.218 381.312L321.23 397.44L371.995 426.589L399.982 410.461L349.218 381.312Z" fill="#98BBFF"/>
<path d="M391.348 411.354L392.687 410.466L348.622 385.312L327.929 397.149L329.269 397.889L348.622 386.792L391.348 411.354Z" fill="#3A8BEB"/>
<path d="M391.347 411.353L348.622 386.791L329.269 397.888L371.994 422.45L391.347 411.353Z" fill="#72A9FD"/>
<path opacity="0.1" d="M188.224 223.927L231.626 199.168L175.401 167.178L132 191.797L188.224 223.927Z" fill="#1E232C"/>
<path d="M189.538 222.178L144.61 196.482V171.1L189.538 196.952V222.178Z" fill="#72A9FD"/>
<path d="M214.445 208.076L189.538 222.177V196.951L214.445 182.693V208.076Z" fill="#3A8BEB"/>
<path d="M169.36 157L144.61 171.258L189.538 196.954L214.445 182.696L169.36 157Z" fill="#98BBFF"/>
<path d="M169.99 160.445L152.649 170.316L153.753 170.943L154.226 171.256L189.537 191.468L205.302 182.537L205.775 182.224L206.878 181.597L169.99 160.445Z" fill="#72A9FD"/>
<path d="M206.878 181.596V183.319L189.538 193.347V191.467L206.878 181.596Z" fill="#326CAF"/>
<path d="M189.537 193.352V191.472L152.649 170.32V172.2L189.537 193.352Z" fill="#3A8BEB"/>
<path d="M208.297 186.143L207.036 186.77V212.152L208.297 211.525L208.455 211.369V185.986L208.297 186.143Z" fill="#C8DFFA"/>
<path d="M203.41 188.961V214.343L204.514 213.717L204.829 213.56V188.178L204.514 188.334L203.41 188.961Z" fill="#C8DFFA"/>
<path d="M199.942 190.999V216.381L201.045 215.598L201.36 215.441V190.059L201.045 190.372L199.942 190.999Z" fill="#C8DFFA"/>
<path d="M196.316 193.038V218.263L197.577 217.637L197.892 217.48V192.098L197.577 192.254L196.316 193.038Z" fill="#C8DFFA"/>
<path d="M151.545 184.418L148.235 182.538V179.248L151.545 180.972V184.418Z" fill="#C8DFFA"/>
<path d="M158.008 188.182L154.856 186.302V183.012L158.008 184.735V188.182Z" fill="#C8DFFA"/>
<path d="M164.63 191.94L161.319 190.06V186.77L164.63 188.493V191.94Z" fill="#C8DFFA"/>
<path d="M151.545 191.47L148.235 189.59V186.143L151.545 188.023V191.47Z" fill="#C8DFFA"/>
<path d="M158.008 195.231L154.856 193.351V189.904L158.008 191.784V195.231Z" fill="#C8DFFA"/>
<path d="M164.63 198.987L161.319 197.107V193.66L164.63 195.54V198.987Z" fill="#C8DFFA"/>
<path d="M171.093 195.696L167.783 193.816V190.369L171.093 192.249V195.696Z" fill="#C8DFFA"/>
<path d="M177.556 199.458L174.403 197.578V194.131L177.556 196.011V199.458Z" fill="#C8DFFA"/>
<path d="M184.177 203.222L180.867 201.341V197.894L184.177 199.775V203.222Z" fill="#C8DFFA"/>
<path d="M171.093 202.751L167.783 200.871V197.424L171.093 199.304V202.751Z" fill="#C8DFFA"/>
<path d="M177.556 206.513L174.403 204.633V201.186L177.556 203.066V206.513Z" fill="#C8DFFA"/>
<path d="M184.177 210.269L180.867 208.388V204.941L184.177 206.822V210.269Z" fill="#C8DFFA"/>
<path d="M176.848 319.432C176.848 319.432 178.337 311.59 170 312.034C170 312.034 170.149 320.764 176.848 319.432Z" fill="#C5DBFF"/>
<path d="M182.654 322.386C182.654 322.386 180.123 317.208 187.864 315.58C187.715 315.58 188.609 322.978 182.654 322.386Z" fill="#C5DBFF"/>
<path d="M184.738 307C184.738 307 188.906 315.878 181.016 317.505C181.016 317.357 175.508 310.995 184.738 307Z" fill="#8CB9FF"/>
<path d="M180.421 326.53H180.719C180.719 326.382 180.719 326.086 180.719 325.938C180.57 324.311 180.57 322.683 180.719 321.056C180.867 319.428 181.165 317.8 181.463 316.321C181.612 315.581 181.761 314.693 182.058 313.953C182.207 313.214 182.505 312.326 182.654 311.586C182.058 313.066 181.612 314.693 181.314 316.321C181.165 317.061 181.016 317.948 180.867 318.688C180.719 319.428 180.719 320.316 180.57 321.056C180.57 321.795 180.421 322.683 180.421 323.571C180.421 324.459 180.421 325.198 180.57 326.086C180.421 326.086 180.421 326.234 180.421 326.53Z" fill="#0052D2"/>
<path d="M174.168 315.288L174.615 315.88C174.764 316.028 174.913 316.176 175.062 316.472C175.211 316.62 175.359 316.768 175.359 317.064L175.657 317.656C175.806 317.804 175.955 318.1 175.955 318.247L176.253 318.839C176.402 318.987 176.402 319.283 176.55 319.431C176.699 319.875 176.997 320.171 177.146 320.615L177.741 321.799L177.89 322.095L178.039 322.39L178.337 322.982C178.635 323.87 178.932 324.61 179.23 325.498L179.379 325.794L179.528 326.089L179.677 326.681V326.829H179.974L179.677 325.942L179.528 325.646L179.379 325.35C179.081 324.462 178.783 323.574 178.486 322.834L178.188 322.242L178.039 321.947L177.89 321.651L177.295 320.467C177.146 320.023 176.848 319.727 176.699 319.283C176.55 319.135 176.55 318.839 176.402 318.691L176.104 318.099C175.955 317.952 175.806 317.656 175.806 317.508L175.359 316.916C175.211 316.768 175.062 316.62 174.913 316.324C174.764 316.176 174.615 316.028 174.466 315.732L174.168 315.288L173.871 314.696C173.573 314.4 173.275 314.105 172.829 313.809C173.126 314.105 173.424 314.4 173.722 314.696L174.168 315.288Z" fill="#0052D2"/>
<path d="M181.612 326.828V326.533L181.761 326.089L181.91 325.349L182.058 324.609C182.356 323.573 182.654 322.537 183.101 321.65C183.398 321.206 183.547 320.762 183.845 320.318C184.143 319.874 184.44 319.43 184.887 318.986C184.44 319.282 184.143 319.726 183.845 320.17C183.696 320.318 183.547 320.614 183.398 320.91C183.249 321.206 183.101 321.354 182.952 321.65C182.505 322.537 182.059 323.573 181.761 324.609L181.612 325.349L181.463 326.089L181.314 326.533V326.976H181.612V326.828Z" fill="#0052D2"/>
<path opacity="0.1" d="M184.887 329.05C182.356 330.53 178.337 330.53 175.955 329.05C173.424 327.57 173.424 325.351 175.955 323.871C178.486 322.392 182.505 322.392 184.887 323.871C187.418 325.351 187.418 327.718 184.887 329.05Z" fill="#1E232C"/>
<path d="M603.848 316.432C603.848 316.432 605.337 308.59 597 309.034C597 309.034 597.149 317.764 603.848 316.432Z" fill="#C5DBFF"/>
<path d="M609.654 319.386C609.654 319.386 607.123 314.208 614.864 312.58C614.715 312.58 615.609 319.978 609.654 319.386Z" fill="#C5DBFF"/>
<path d="M611.738 304C611.738 304 615.906 312.878 608.016 314.505C608.016 314.357 602.508 307.995 611.738 304Z" fill="#8CB9FF"/>
<path d="M607.421 323.53H607.719C607.719 323.382 607.719 323.086 607.719 322.938C607.57 321.311 607.57 319.683 607.719 318.056C607.867 316.428 608.165 314.8 608.463 313.321C608.612 312.581 608.761 311.693 609.058 310.953C609.207 310.214 609.505 309.326 609.654 308.586C609.058 310.066 608.612 311.693 608.314 313.321C608.165 314.061 608.016 314.948 607.867 315.688C607.719 316.428 607.719 317.316 607.57 318.056C607.57 318.795 607.421 319.683 607.421 320.571C607.421 321.459 607.421 322.198 607.57 323.086C607.421 323.086 607.421 323.234 607.421 323.53Z" fill="#0052D2"/>
<path d="M601.168 312.288L601.615 312.88C601.764 313.028 601.913 313.176 602.062 313.472C602.211 313.62 602.359 313.768 602.359 314.064L602.657 314.656C602.806 314.804 602.955 315.1 602.955 315.247L603.253 315.839C603.402 315.987 603.402 316.283 603.55 316.431C603.699 316.875 603.997 317.171 604.146 317.615L604.741 318.799L604.89 319.095L605.039 319.39L605.337 319.982C605.635 320.87 605.932 321.61 606.23 322.498L606.379 322.794L606.528 323.089L606.677 323.681V323.829H606.974L606.677 322.942L606.528 322.646L606.379 322.35C606.081 321.462 605.783 320.574 605.486 319.834L605.188 319.242L605.039 318.947L604.89 318.651L604.295 317.467C604.146 317.023 603.848 316.727 603.699 316.283C603.55 316.135 603.55 315.839 603.402 315.691L603.104 315.099C602.955 314.952 602.806 314.656 602.806 314.508L602.359 313.916C602.211 313.768 602.062 313.62 601.913 313.324C601.764 313.176 601.615 313.028 601.466 312.732L601.168 312.288L600.871 311.696C600.573 311.4 600.275 311.105 599.829 310.809C600.126 311.105 600.424 311.4 600.722 311.696L601.168 312.288Z" fill="#0052D2"/>
<path d="M608.612 323.828V323.533L608.761 323.089L608.91 322.349L609.058 321.609C609.356 320.573 609.654 319.537 610.101 318.65C610.398 318.206 610.547 317.762 610.845 317.318C611.143 316.874 611.44 316.43 611.887 315.986C611.44 316.282 611.143 316.726 610.845 317.17C610.696 317.318 610.547 317.614 610.398 317.91C610.249 318.206 610.101 318.354 609.952 318.65C609.505 319.537 609.059 320.573 608.761 321.609L608.612 322.349L608.463 323.089L608.314 323.533V323.976H608.612V323.828Z" fill="#0052D2"/>
<path opacity="0.1" d="M611.887 326.05C609.356 327.53 605.337 327.53 602.955 326.05C600.424 324.57 600.424 322.351 602.955 320.871C605.486 319.392 609.505 319.392 611.887 320.871C614.418 322.351 614.418 324.718 611.887 326.05Z" fill="#1E232C"/>
<path d="M288.848 290.432C288.848 290.432 290.337 282.59 282 283.034C282 283.034 282.149 291.764 288.848 290.432Z" fill="#C5DBFF"/>
<path d="M294.654 293.386C294.654 293.386 292.123 288.208 299.864 286.58C299.715 286.58 300.609 293.978 294.654 293.386Z" fill="#C5DBFF"/>
<path d="M296.738 278C296.738 278 300.906 286.878 293.016 288.505C293.016 288.357 287.508 281.995 296.738 278Z" fill="#8CB9FF"/>
<path d="M292.421 297.53H292.719C292.719 297.382 292.719 297.086 292.719 296.938C292.57 295.311 292.57 293.683 292.719 292.056C292.867 290.428 293.165 288.8 293.463 287.321C293.612 286.581 293.761 285.693 294.058 284.953C294.207 284.214 294.505 283.326 294.654 282.586C294.058 284.066 293.612 285.693 293.314 287.321C293.165 288.061 293.016 288.948 292.867 289.688C292.719 290.428 292.719 291.316 292.57 292.056C292.57 292.795 292.421 293.683 292.421 294.571C292.421 295.459 292.421 296.198 292.57 297.086C292.421 297.086 292.421 297.234 292.421 297.53Z" fill="#0052D2"/>
<path d="M286.168 286.288L286.615 286.88C286.764 287.028 286.913 287.176 287.062 287.472C287.211 287.62 287.359 287.768 287.359 288.064L287.657 288.656C287.806 288.804 287.955 289.1 287.955 289.247L288.253 289.839C288.402 289.987 288.402 290.283 288.55 290.431C288.699 290.875 288.997 291.171 289.146 291.615L289.741 292.799L289.89 293.095L290.039 293.39L290.337 293.982C290.635 294.87 290.932 295.61 291.23 296.498L291.379 296.794L291.528 297.089L291.677 297.681V297.829H291.974L291.677 296.942L291.528 296.646L291.379 296.35C291.081 295.462 290.783 294.574 290.486 293.834L290.188 293.242L290.039 292.947L289.89 292.651L289.295 291.467C289.146 291.023 288.848 290.727 288.699 290.283C288.55 290.135 288.55 289.839 288.402 289.691L288.104 289.099C287.955 288.952 287.806 288.656 287.806 288.508L287.359 287.916C287.211 287.768 287.062 287.62 286.913 287.324C286.764 287.176 286.615 287.028 286.466 286.732L286.168 286.288L285.871 285.696C285.573 285.4 285.275 285.105 284.829 284.809C285.126 285.105 285.424 285.4 285.722 285.696L286.168 286.288Z" fill="#0052D2"/>
<path d="M293.612 297.828V297.533L293.761 297.089L293.91 296.349L294.058 295.609C294.356 294.573 294.654 293.537 295.101 292.65C295.398 292.206 295.547 291.762 295.845 291.318C296.143 290.874 296.44 290.43 296.887 289.986C296.44 290.282 296.143 290.726 295.845 291.17C295.696 291.318 295.547 291.614 295.398 291.91C295.249 292.206 295.101 292.354 294.952 292.65C294.505 293.537 294.059 294.573 293.761 295.609L293.612 296.349L293.463 297.089L293.314 297.533V297.976H293.612V297.828Z" fill="#0052D2"/>
<path opacity="0.1" d="M296.887 300.05C294.356 301.53 290.337 301.53 287.955 300.05C285.424 298.57 285.424 296.351 287.955 294.871C290.486 293.392 294.505 293.392 296.887 294.871C299.418 296.351 299.418 298.718 296.887 300.05Z" fill="#1E232C"/>
<path opacity="0.1" d="M295.997 403.81L289 399.815L295.997 395.82L302.994 399.815L295.997 403.81Z" fill="#1E232C"/>
<path d="M295.997 400.705L295.104 400.114V391.68L295.997 392.124V400.705Z" fill="#70B1FF"/>
<path d="M296.89 400.114L295.997 400.705V392.124L296.89 391.68V400.114Z" fill="#8CB9FF"/>
<path d="M295.997 398.189L289.893 394.638L295.997 372V398.189Z" fill="#C5DBFF"/>
<path d="M302.101 394.638L295.997 398.189V372L302.101 394.638Z" fill="#8CB9FF"/>
<path d="M211.783 150.417C211.783 150.417 206.275 148.198 203.298 150.417C203.298 150.417 208.955 149.529 212.23 151.749C212.23 151.749 214.91 147.754 219.078 147.606C219.078 147.606 215.654 146.126 211.783 150.417Z" fill="#8CB9FF"/>
<path d="M209.55 138.581C209.55 138.581 205.233 136.953 203 138.877C203 138.877 207.466 137.989 209.997 139.616C209.997 139.616 211.932 136.361 215.207 136.213C215.058 136.065 212.379 135.178 209.55 138.581Z" fill="#8CB9FF"/>
<path d="M223.842 143.018C223.842 143.018 218.929 140.651 216.101 142.574C216.101 142.574 221.46 142.13 224.14 144.202C224.14 144.202 226.819 140.651 230.69 140.799C230.69 140.651 227.712 139.319 223.842 143.018Z" fill="#8CB9FF"/>
<path d="M468.783 171.417C468.783 171.417 463.275 169.198 460.298 171.417C460.298 171.417 465.955 170.529 469.23 172.749C469.23 172.749 471.91 168.754 476.078 168.606C476.078 168.606 472.654 167.126 468.783 171.417Z" fill="#8CB9FF"/>
<path d="M466.55 159.581C466.55 159.581 462.233 157.953 460 159.877C460 159.877 464.466 158.989 466.997 160.616C466.997 160.616 468.932 157.361 472.207 157.213C472.058 157.065 469.379 156.178 466.55 159.581Z" fill="#8CB9FF"/>
<path d="M480.842 164.018C480.842 164.018 475.929 161.651 473.101 163.574C473.101 163.574 478.46 163.13 481.14 165.202C481.14 165.202 483.819 161.651 487.69 161.799C487.69 161.651 484.713 160.319 480.842 164.018Z" fill="#8CB9FF"/>
<path d="M28.7834 303.417C28.7834 303.417 23.2752 301.198 20.2979 303.417C20.2979 303.417 25.9549 302.529 29.23 304.749C29.23 304.749 31.9097 300.754 36.078 300.606C36.078 300.606 32.654 299.126 28.7834 303.417Z" fill="#8CB9FF"/>
<path d="M26.5502 291.581C26.5502 291.581 22.233 289.953 20 291.877C20 291.877 24.466 290.989 26.9968 292.616C26.9968 292.616 28.9321 289.361 32.2072 289.213C32.0584 289.065 29.3787 288.178 26.5502 291.581Z" fill="#8CB9FF"/>
<path d="M40.8418 296.018C40.8418 296.018 35.9291 293.651 33.1006 295.574C33.1006 295.574 38.4599 295.13 41.1396 297.202C41.1396 297.202 43.8192 293.651 47.6898 293.799C47.6898 293.651 44.7125 292.319 40.8418 296.018Z" fill="#8CB9FF"/>
<path opacity="0.1" d="M366.636 350.831L359.49 346.688L366.636 342.545L373.93 346.688L366.636 350.831Z" fill="#1E232C"/>
<path d="M366.636 347.728L365.594 347.136V337.223L366.636 337.815V347.728Z" fill="#70B1FF"/>
<path d="M367.678 347.136L366.636 347.728V337.815L367.678 337.223V347.136Z" fill="#8CB9FF"/>
<path d="M371.697 341.365L366.636 344.324V338.554L371.697 335.742V341.365Z" fill="#8CB9FF"/>
<path d="M366.636 344.324L361.723 341.365V335.742L366.636 338.554V344.324Z" fill="#C5DBFF"/>
<path d="M366.636 338.552L361.723 335.74L366.636 332.781L371.697 335.74L366.636 338.552Z" fill="#70B1FF"/>
<path opacity="0.1" d="M353.684 343.731L346.389 339.588L353.684 335.445L360.83 339.588L353.684 343.731Z" fill="#1E232C"/>
<path d="M353.684 340.623L352.642 340.031V330.117L353.684 330.709V340.623Z" fill="#70B1FF"/>
<path d="M354.726 340.031L353.684 340.623V330.709L354.726 330.117V340.031Z" fill="#8CB9FF"/>
<path d="M358.596 334.259L353.684 337.07V331.448L358.596 328.488V334.259Z" fill="#8CB9FF"/>
<path d="M353.684 337.07L348.622 334.259V328.488L353.684 331.448V337.07Z" fill="#C5DBFF"/>
<path d="M353.684 331.45L348.622 328.491L353.684 325.68L358.597 328.491L353.684 331.45Z" fill="#70B1FF"/>
<path opacity="0.1" d="M696.971 236.27L691.612 233.162L696.971 230.203L702.33 233.162L696.971 236.27Z" fill="#1E232C"/>
<path d="M696.972 233.896L696.227 233.452V226.941L696.972 227.385V233.896Z" fill="#70B1FF"/>
<path d="M697.716 233.452L696.972 233.896V227.385L697.716 226.941V233.452Z" fill="#8CB9FF"/>
<path d="M696.971 231.975L692.208 229.311L696.971 212V231.975Z" fill="#C5DBFF"/>
<path d="M701.735 229.311L696.971 231.975V212L701.735 229.311Z" fill="#8CB9FF"/>
<path opacity="0.1" d="M685.359 242.779L680 239.672L685.359 236.713L690.57 239.672L685.359 242.779Z" fill="#1E232C"/>
<path d="M685.359 240.407L684.615 239.963V233.453L685.359 233.897V240.407Z" fill="#70B1FF"/>
<path d="M685.955 239.963L685.359 240.407V233.897L685.955 233.453V239.963Z" fill="#8CB9FF"/>
<path d="M685.359 238.487L680.596 235.823L685.359 218.512V238.487Z" fill="#C5DBFF"/>
<path d="M689.974 235.823L685.359 238.487V218.512L689.974 235.823Z" fill="#8CB9FF"/>
<path d="M225.751 338.724V426.756C225.751 427.964 226.619 429.173 228.182 430.208C231.482 432.107 236.692 432.107 239.991 430.208C241.554 429.345 242.423 428.137 242.423 426.756V338.724H225.751Z" fill="url(#paint4_linear_2_2096)"/>
<path d="M259.095 349.942L234.087 364.269V340.794L265 323.015L259.095 349.942Z" fill="#3A8BEB"/>
<path d="M234.087 340.796L203 323.017L234.087 308L265 323.017L234.087 340.796Z" fill="#72A9FD"/>
<path d="M208.905 349.942L234.087 364.269V340.794L203 323.015L208.905 349.942Z" fill="#376DD7"/>
<path d="M212.204 346.665L229.397 356.677V343.731L209.599 332.339L212.204 346.665Z" fill="#C8DFFA"/>
<path d="M256.143 346.665L238.95 356.677V343.731L258.748 332.339L256.143 346.665Z" fill="#C8DFFA"/>
<path opacity="0.1" d="M440.425 347.251C429.111 353.761 410.8 353.761 399.486 347.251C388.171 340.74 388.171 330.235 399.486 323.725C410.8 317.214 429.111 317.214 440.425 323.725C451.739 330.235 451.739 340.74 440.425 347.251Z" fill="#1E232C"/>
<path d="M396.21 300.641V334.376C396.21 337.927 398.592 341.33 403.207 343.994C412.437 349.32 427.473 349.32 436.703 343.994C441.318 341.33 443.7 337.927 443.7 334.376V300.641H396.21Z" fill="url(#paint5_linear_2_2096)"/>
<path d="M420.03 314.256C433.102 314.256 443.7 308.162 443.7 300.644C443.7 293.126 433.102 287.031 420.03 287.031C406.957 287.031 396.359 293.126 396.359 300.644C396.359 308.162 406.957 314.256 420.03 314.256Z" fill="#C8DFFA"/>
<path d="M400.974 224.297V298.87C400.974 301.681 402.761 304.493 406.483 306.564C413.926 310.855 425.836 310.855 433.279 306.564C437.001 304.493 438.787 301.681 438.787 298.87V224.297H400.974Z" fill="url(#paint6_linear_2_2096)"/>
<path d="M433.428 231.989C425.984 236.28 414.075 236.28 406.631 231.989C399.188 227.698 399.188 220.892 406.631 216.601C414.075 212.31 425.984 212.31 433.428 216.601C440.722 220.892 440.722 227.846 433.428 231.989Z" fill="#C8DFFA"/>
<path d="M410.055 220.302C415.564 217.195 424.496 217.195 429.855 220.302C432.237 221.633 433.577 223.409 433.875 225.185C434.321 222.817 432.981 220.45 429.855 218.674C424.347 215.567 415.415 215.567 410.055 218.674C406.929 220.45 405.589 222.817 406.036 225.185C406.334 223.409 407.673 221.633 410.055 220.302Z" fill="#3A8BEB"/>
<path d="M410.056 230.071C415.564 233.178 424.496 233.178 429.855 230.071C432.237 228.739 433.577 226.963 433.875 225.188C433.577 223.412 432.237 221.637 429.855 220.305C424.347 217.198 415.415 217.198 410.056 220.305C407.674 221.637 406.334 223.412 406.036 225.188C406.334 226.963 407.674 228.739 410.056 230.071Z" fill="#72A9FD"/>
<path d="M433.428 248.707C425.984 252.998 413.926 252.998 406.482 248.707C403.207 246.783 401.272 244.268 400.974 241.9C400.528 245.008 402.463 248.115 406.482 250.482C413.926 254.773 425.984 254.773 433.428 250.482C437.447 248.115 439.382 245.008 438.936 241.9C438.638 244.416 436.703 246.783 433.428 248.707Z" fill="#3A8BEB"/>
<path d="M433.428 268.088C425.984 272.378 413.926 272.378 406.482 268.088C403.207 266.164 401.272 263.649 400.974 261.281C400.528 264.388 402.463 267.496 406.482 269.863C413.926 274.154 425.984 274.154 433.428 269.863C437.447 267.496 439.382 264.388 438.936 261.281C438.638 263.649 436.703 266.164 433.428 268.088Z" fill="#3A8BEB"/>
<path d="M433.428 287.328C425.984 291.619 413.926 291.619 406.482 287.328C403.207 285.404 401.272 282.889 400.974 280.521C400.528 283.629 402.463 286.736 406.482 289.103C413.926 293.394 425.984 293.394 433.428 289.103C437.447 286.736 439.382 283.629 438.936 280.521C438.638 283.037 436.703 285.404 433.428 287.328Z" fill="#3A8BEB"/>
<path d="M419.851 223.91L420.298 224.206V206.895C420.596 206.895 420.893 206.747 420.893 206.451C420.893 206.007 420.596 205.415 420.149 205.119C419.703 204.823 419.405 205.119 419.405 205.563C419.405 206.007 419.703 206.451 420 206.747V223.91H419.851Z" fill="#8CB9FF"/>
<path opacity="0.1" d="M123.062 399.81L72 370.514L123.062 341.365L174.125 370.514L123.062 399.81Z" fill="#1E232C"/>
<path d="M157.005 371.845L122.318 391.82V359.416L157.005 339.441V371.845Z" fill="#91B9F6"/>
<path d="M122.318 391.82L87.6314 371.845V339.441L122.318 359.416V391.82Z" fill="#72A9FD"/>
<path d="M122.318 359.419L87.6314 339.444L122.318 319.469L157.005 339.444L122.318 359.419Z" fill="#C8DFFA"/>
<path d="M149.263 339.289L122.318 354.825V264.272L149.263 248.736V339.289Z" fill="#558CE7"/>
<path d="M122.318 354.825L95.2235 339.289V248.736L122.318 264.272V354.825Z" fill="#72A9FD"/>
<path d="M122.318 264.275L95.2235 248.739L122.318 233.203L149.263 248.739L122.318 264.275Z" fill="#C8DFFA"/>
<path d="M139.587 248.891L122.318 258.804V238.829L139.587 228.916V248.891Z" fill="#3A8BEB"/>
<path d="M122.318 258.804L104.9 248.891V228.916L122.318 238.829V258.804Z" fill="#72A9FD"/>
<path d="M122.318 238.827L104.9 228.913L122.318 219L139.587 228.913L122.318 238.827Z" fill="#C8DFFA"/>
<path d="M122.318 221.809L109.813 228.911L122.318 236.161L134.674 228.911L122.318 221.809Z" fill="#72A9FD"/>
<path d="M133.781 229.503L134.674 228.911L122.318 221.809L109.813 228.911L110.855 229.503L122.318 222.844L133.781 229.503Z" fill="#3A8BEB"/>
<path d="M122.318 380.278L87.6314 360.451V361.339L122.318 381.166L157.005 361.339V360.451L122.318 380.278Z" fill="#3A8BEB"/>
<path d="M122.318 369.923L87.6314 350.096V350.836L122.318 370.81L157.005 350.836V350.096L122.318 369.923Z" fill="#3A8BEB"/>
<path d="M100.137 266.793L98.6479 266.053V258.951L100.137 259.839V266.793Z" fill="#C8DFFA"/>
<path d="M104.454 269.309L102.965 268.421V261.467L104.454 262.355V269.309Z" fill="#C8DFFA"/>
<path d="M108.771 271.824L107.282 270.937V263.982L108.771 264.87V271.824Z" fill="#C8DFFA"/>
<path d="M113.089 274.34L111.6 273.452V266.498L113.089 267.238V274.34Z" fill="#C8DFFA"/>
<path d="M117.555 276.857L115.917 275.969V268.867L117.555 269.755V276.857Z" fill="#C8DFFA"/>
<path d="M100.137 283.365L98.648 282.477V275.375L100.137 276.263V283.365Z" fill="#C8DFFA"/>
<path d="M104.454 285.733L102.965 284.845V277.891L104.454 278.778V285.733Z" fill="#C8DFFA"/>
<path d="M108.771 288.248L107.282 287.36V280.406L108.771 281.294V288.248Z" fill="#C8DFFA"/>
<path d="M113.089 290.764L111.6 289.876V282.922L113.089 283.81V290.764Z" fill="#C8DFFA"/>
<path d="M117.555 293.281L115.917 292.393V285.291L117.555 286.179V293.281Z" fill="#C8DFFA"/>
<path d="M100.137 299.793L98.6479 298.905V291.803L100.137 292.691V299.793Z" fill="#C8DFFA"/>
<path d="M104.454 302.16L102.965 301.273V294.318L104.454 295.206V302.16Z" fill="#C8DFFA"/>
<path d="M108.771 304.676L107.282 303.788V296.834L108.771 297.722V304.676Z" fill="#C8DFFA"/>
<path d="M113.089 307.192L111.6 306.304V299.35L113.089 300.237V307.192Z" fill="#C8DFFA"/>
<path d="M117.555 309.711L115.917 308.823V301.721L117.555 302.608V309.711Z" fill="#C8DFFA"/>
<path d="M100.137 316.211L98.648 315.323V308.221L100.137 309.108V316.211Z" fill="#C8DFFA"/>
<path d="M104.454 318.578L102.965 317.838V310.736L104.454 311.624V318.578Z" fill="#C8DFFA"/>
<path d="M108.771 321.094L107.282 320.206V313.252L108.771 314.14V321.094Z" fill="#C8DFFA"/>
<path d="M113.089 323.61L111.6 322.722V315.768L113.089 316.655V323.61Z" fill="#C8DFFA"/>
<path d="M117.555 326.125L115.917 325.237V318.283L117.555 319.023V326.125Z" fill="#C8DFFA"/>
<path d="M100.137 332.636L98.648 331.749V324.646L100.137 325.534V332.636Z" fill="#C8DFFA"/>
<path d="M104.454 335.152L102.965 334.264V327.162L104.454 328.05V335.152Z" fill="#C8DFFA"/>
<path d="M108.771 337.52L107.282 336.632V329.678L108.771 330.566V337.52Z" fill="#C8DFFA"/>
<path d="M113.089 340.035L111.6 339.148V332.193L113.089 333.081V340.035Z" fill="#C8DFFA"/>
<path d="M117.555 342.551L115.917 341.663V334.709L117.555 335.597V342.551Z" fill="#C8DFFA"/>
<path d="M144.5 266.793L145.989 266.053V258.951L144.5 259.839V266.793Z" fill="#C8DFFA"/>
<path d="M140.183 269.309L141.672 268.421V261.467L140.183 262.355V269.309Z" fill="#C8DFFA"/>
<path d="M135.866 271.824L137.355 270.937V263.982L135.866 264.87V271.824Z" fill="#C8DFFA"/>
<path d="M131.548 274.34L133.037 273.452V266.498L131.548 267.238V274.34Z" fill="#C8DFFA"/>
<path d="M127.082 276.857L128.72 275.969V268.867L127.082 269.755V276.857Z" fill="#C8DFFA"/>
<path d="M144.5 283.365L145.989 282.477V275.375L144.5 276.263V283.365Z" fill="#C8DFFA"/>
<path d="M140.183 285.733L141.672 284.845V277.891L140.183 278.778V285.733Z" fill="#C8DFFA"/>
<path d="M135.866 288.248L137.355 287.36V280.406L135.866 281.294V288.248Z" fill="#C8DFFA"/>
<path d="M131.548 290.764L133.037 289.876V282.922L131.548 283.81V290.764Z" fill="#C8DFFA"/>
<path d="M127.082 293.281L128.72 292.393V285.291L127.082 286.179V293.281Z" fill="#C8DFFA"/>
<path d="M144.5 299.793L145.989 298.905V291.803L144.5 292.691V299.793Z" fill="#C8DFFA"/>
<path d="M140.183 302.16L141.672 301.273V294.318L140.183 295.206V302.16Z" fill="#C8DFFA"/>
<path d="M135.866 304.676L137.355 303.788V296.834L135.866 297.722V304.676Z" fill="#C8DFFA"/>
<path d="M131.548 307.192L133.037 306.304V299.35L131.548 300.237V307.192Z" fill="#C8DFFA"/>
<path d="M127.082 309.711L128.72 308.823V301.721L127.082 302.608V309.711Z" fill="#C8DFFA"/>
<path d="M144.5 316.211L145.989 315.323V308.221L144.5 309.108V316.211Z" fill="#C8DFFA"/>
<path d="M140.183 318.578L141.672 317.839V310.736L140.183 311.624V318.578Z" fill="#C8DFFA"/>
<path d="M135.866 321.094L137.355 320.206V313.252L135.866 314.14V321.094Z" fill="#C8DFFA"/>
<path d="M131.548 323.61L133.037 322.722V315.768L131.548 316.655V323.61Z" fill="#C8DFFA"/>
<path d="M127.082 326.125L128.72 325.237V318.283L127.082 319.023V326.125Z" fill="#C8DFFA"/>
<path d="M144.5 332.636L145.989 331.749V324.646L144.5 325.534V332.636Z" fill="#C8DFFA"/>
<path d="M140.183 335.152L141.672 334.264V327.162L140.183 328.05V335.152Z" fill="#C8DFFA"/>
<path d="M135.866 337.52L137.355 336.632V329.678L135.866 330.566V337.52Z" fill="#C8DFFA"/>
<path d="M131.548 340.035L133.037 339.148V332.193L131.548 333.081V340.035Z" fill="#C8DFFA"/>
<path d="M127.082 342.551L128.72 341.663V334.709L127.082 335.597V342.551Z" fill="#C8DFFA"/>
<path opacity="0.1" d="M390.883 207.508L361 190.43L403.69 165.927L434 182.793L390.883 207.508Z" fill="#1E232C"/>
<path d="M391.097 203.054L368.471 190.113V167.519L391.097 180.46V203.054Z" fill="#3A8BEB"/>
<path d="M425.142 183.534L391.097 203.051V180.457L425.142 160.94V183.534Z" fill="#72A9FD"/>
<path d="M402.623 148L368.471 167.518L391.097 180.459L425.142 160.941L402.623 148Z" fill="#C8DFFA"/>
<path d="M369.005 185.556L391.097 198.179L424.715 178.979L425.142 178.661V179.085L391.097 198.603L368.471 185.662V185.238L369.005 185.556Z" fill="#C8DFFA"/>
<path d="M369.005 181.205L391.097 193.827L424.715 174.628L425.142 174.31V174.734L391.097 194.252L368.471 181.311V180.886L369.005 181.205Z" fill="#C8DFFA"/>
<path d="M369.005 176.858L391.097 189.481L424.715 170.281L425.142 169.963V170.387L391.097 189.905L368.471 176.964V176.54L369.005 176.858Z" fill="#C8DFFA"/>
<path d="M369.005 172.507L391.097 185.129L424.715 165.824L425.142 165.612V166.036L391.097 185.554L368.471 172.613V172.188L369.005 172.507Z" fill="#C8DFFA"/>
<path d="M392.591 176.643L418.419 161.792L401.129 151.927L375.302 166.672L392.591 176.643ZM416.818 161.792L392.591 175.688L376.796 166.672L401.129 152.776L416.818 161.792Z" fill="#3A8BEB"/>
<path opacity="0.1" d="M522.873 140.621L556.87 160.142L534.39 172.999L500.393 153.557L522.873 140.621Z" fill="#1E232C"/>
<path d="M533.995 169.866L552.137 159.439V143.759L533.995 154.186V169.866Z" fill="#72A9FD"/>
<path d="M506.545 154.107L533.995 169.865V154.185L506.545 138.427V154.107Z" fill="#3A8BEB"/>
<path d="M524.688 128L552.138 143.758L533.995 154.185L506.545 138.427L524.688 128Z" fill="#C8DFFA"/>
<path d="M542.593 140.703L547.326 143.368L542.593 146.112L537.861 143.368L542.593 140.703Z" fill="#72A9FD"/>
<path d="M537.861 143.368V144.074L542.593 146.818V146.112L537.861 143.368Z" fill="#3A8BEB"/>
<path d="M547.326 143.368V144.074L542.593 146.818V146.112L547.326 143.368Z" fill="#305CB6"/>
<path d="M512.224 138.973L511.514 138.503L521.453 132.858L534.941 140.541L534.153 141.011L521.453 133.72L512.224 138.973Z" fill="#3A8BEB"/>
<path d="M512.224 138.974L521.453 133.722L534.152 141.013L525.002 146.265L512.224 138.974Z" fill="#72A9FD"/>
<path d="M524.609 164.455L529.893 167.513V156.38L524.609 153.323V164.455Z" fill="#C8DFFA"/>
<path d="M525.476 153.871V164.926L524.609 164.455V153.323L525.476 153.871Z" fill="#3A8BEB"/>
<path d="M509.227 152.461L520.27 158.811V151.442L509.227 145.091V152.461Z" fill="#C8DFFA"/>
<path d="M509.227 145.092L510.016 145.563V152.932L509.227 152.462V145.092Z" fill="#3A8BEB"/>
<path d="M548.904 150.028V157.083L548.115 157.554V150.498L548.904 150.028Z" fill="#3A8BEB"/>
<path d="M538.492 156.064L548.116 150.497V157.553L538.492 163.041V156.064Z" fill="#C8DFFA"/>
</g>
<path opacity="0.08" d="M690.017 162.3L639.618 191.4L588.926 162.3L639.325 133.273L690.017 162.3Z" fill="#00224A"/>
<path d="M689.922 116.411L689.849 146.289L639.539 175.509L639.612 145.704L689.922 116.411Z" fill="#0052D2"/>
<path d="M639.613 145.704L639.539 175.509L588.936 146.289L589.01 116.411L639.613 145.704Z" fill="#2068D8"/>
<path d="M689.922 116.411L639.612 145.704L589.009 116.411L639.319 87.1918L689.922 116.411Z" fill="#0045AD"/>
<path d="M661.295 103.877L654.435 113.097C654.171 113.488 654.063 113.907 654.089 114.306L654.465 120.809C654.44 120.411 654.548 119.991 654.811 119.601L661.671 110.381C661.912 110.024 662.006 109.637 661.988 109.271L661.612 102.767C661.632 103.138 661.535 103.52 661.295 103.877Z" fill="#BEC6D8"/>
<path d="M669.122 119.651L669.498 126.154C669.507 126.293 669.5 126.442 669.47 126.587L669.093 120.083C669.119 119.94 669.129 119.796 669.122 119.651Z" fill="url(#paint7_linear_2_2096)"/>
<path d="M668.735 121.973C668.686 122.226 668.591 122.458 668.449 122.664C668.025 123.291 667.227 123.658 666.404 123.523L654.429 121.628C653.575 121.494 652.798 121.88 652.384 122.497C652.167 122.82 652.05 123.204 652.073 123.608L652.45 130.112C652.426 129.707 652.544 129.324 652.76 129C653.175 128.383 653.952 127.997 654.805 128.131L666.787 130.028C667.61 130.163 668.408 129.796 668.832 129.169C668.969 128.966 669.069 128.731 669.118 128.478L669.472 126.591L669.095 120.087L668.735 121.973Z" fill="#BEC6D8"/>
<path d="M612.284 111.49C612.55 111.093 612.98 110.782 613.551 110.662L659.177 101.036C660.936 100.667 662.244 102.476 661.297 103.882L654.435 113.098C653.617 114.304 654.305 115.816 655.726 116.044L667.464 117.903C668.556 118.077 669.283 119.053 669.094 120.083L668.739 121.97C668.691 122.223 668.595 122.456 668.454 122.662C668.029 123.289 667.231 123.655 666.409 123.52L654.429 121.627C653.576 121.493 652.799 121.88 652.384 122.496C652.102 122.918 651.985 123.445 652.135 123.987L655.253 135.363C655.405 135.919 655.288 136.436 655.011 136.849C654.455 137.672 653.25 138.069 652.225 137.457L612.892 114.111C611.872 113.507 611.729 112.312 612.284 111.49Z" fill="#F3F5F9"/>
<path d="M655.011 136.84C654.455 137.662 653.25 138.059 652.225 137.447L612.893 114.112C612.298 113.76 612.002 113.205 611.969 112.64L612.346 119.144C612.378 119.708 612.675 120.263 613.269 120.615L652.603 143.954C653.633 144.565 654.834 144.169 655.39 143.347C655.601 143.031 655.718 142.658 655.693 142.25L655.316 135.747C655.344 136.149 655.224 136.528 655.011 136.84Z" fill="#BEC6D8"/>
<path opacity="0.08" d="M486.731 284.44C483.352 286.405 494.432 295.992 511.405 305.892C528.457 315.793 544.958 322.237 548.337 320.272C551.716 318.308 540.636 308.721 523.663 298.82C506.612 288.919 490.11 282.476 486.731 284.44Z" fill="#00224A"/>
<path d="M495.218 216.313L504.491 210.969L490.032 197.375L480.76 202.718L495.218 216.313Z" fill="#7DB1FF"/>
<path d="M480.76 202.718L480.603 270.218L495.061 278.547L495.219 216.313L480.76 202.718Z" fill="#ACCCFD"/>
<path d="M509.127 242.479L518.321 237.136L504.491 210.969L495.219 216.313L509.127 242.479Z" fill="#5E9EFF"/>
<path d="M495.218 216.313L495.061 278.547L509.52 286.877L508.97 286.562L509.127 242.479L495.218 216.313Z" fill="#7DB1FF"/>
<path d="M523.429 243.579L509.677 242.557L509.127 242.479L508.97 286.562L509.52 286.876L523.429 294.891L523.272 294.812L523.429 243.579Z" fill="#5E9EFF"/>
<path d="M523.429 243.579L532.318 238.458L518.311 237.145L509.054 242.519L523.429 243.579Z" fill="#3E7EFB"/>
<path d="M537.809 272.968L547.003 267.625L532.318 238.458L523.346 243.653L537.809 272.968Z" fill="#0052D2"/>
<path d="M523.428 243.579L523.271 294.813L523.428 294.891L537.729 303.142L537.808 272.968L523.585 243.972L523.428 243.579Z" fill="#3E7EFB"/>
<path d="M552.111 298.741L561.383 293.319L547.081 267.625L537.809 272.968L552.111 298.741Z" fill="#0045AD"/>
<path d="M537.808 272.968L537.73 303.221L552.188 311.55L552.031 311.472L552.11 298.413L537.808 272.968Z" fill="#0052D2"/>
<path d="M552.019 311.437L561.398 305.929V293.271L552.118 298.464L552.019 311.437Z" fill="#0045AD"/>
<g clip-path="url(#clip1_2_2096)">
<path d="M366.367 241.845L360.511 238.917L332.084 225.033H331.989L327.456 222.861C325.661 221.917 323.584 221.445 321.411 221.445C318.861 221.445 316.311 222.106 314.517 223.333L307.245 227.678L278.817 244.772L281.272 246L308.661 229.567L315.745 225.317C317.256 224.278 319.334 223.806 321.411 223.806C323.206 223.806 324.906 224.183 326.417 224.939L333.972 228.622L334.067 228.528L359 240.711L365.328 243.828C367.217 244.772 368.35 246.283 368.35 247.795C368.35 249.211 367.406 250.533 365.706 251.572L361.739 253.745L361.645 253.839L360.417 254.5L333.311 270.745H333.406L313.289 282.833L313.195 282.739L284.767 299.833H284.861L268.9 309.372L249.445 321.083H249.35L232.445 331.378L234.9 332.606L242.834 327.695H242.928L262.195 316.172L290.622 299.078H290.528L314.328 284.722L314.422 284.817L342.85 267.722H342.756L362.872 255.633L366.745 253.461C369.2 252.045 370.522 249.967 370.522 247.7C370.711 245.433 369.106 243.167 366.367 241.845Z" fill="url(#paint8_linear_2_2096)"/>
<path d="M406.128 130.022L403.484 128.889L365.706 151.839H365.8L342 166.195L341.906 166.1L313.478 183.195H313.573L288.545 198.306L278.156 204.445H278.061L251.05 220.689L245.289 224.089C243.117 225.506 241.889 227.489 241.889 229.567C241.889 231.928 243.495 234.195 246.234 235.611L248.784 236.839L261.25 242.789L268.617 246.472C270.411 247.417 272.489 247.889 274.661 247.889C277.023 247.889 279.384 247.322 281.178 246.189L289.867 240.9L316.689 224.75H316.595L312.534 224.467H312.628L287.506 239.578L286.656 240.05L285.9 240.522L279.95 244.111C278.439 244.961 276.55 245.433 274.567 245.433C272.773 245.433 270.978 245.056 269.561 244.3L265.406 242.222L264.65 241.845L261.817 240.428L253.223 236.367H253.317L247.273 233.533C245.384 232.589 244.25 231.078 244.25 229.567C244.25 228.245 245.1 227.017 246.517 226.072L253.506 221.917L271.639 211.056H271.734L291 199.533L319.334 182.439H319.239L343.039 168.083L343.134 168.178L371.561 151.083H371.467L406.128 130.022Z" fill="url(#paint9_linear_2_2096)"/>
<ellipse cx="275.889" cy="246.944" rx="7.55555" ry="3.77778" fill="#CDD2DF"/>
<ellipse cx="320.278" cy="223.333" rx="7.55556" ry="3.77777" fill="#CDD2DF"/>
<g opacity="0.54">
<path opacity="0.16" d="M289.709 239.156C297.407 243.608 297.46 250.835 289.813 255.286C282.167 259.738 269.703 259.738 262.005 255.286C254.306 250.835 254.254 243.608 261.9 239.156C269.546 234.705 282.01 234.705 289.709 239.156Z" fill="#00224A"/>
</g>
<path d="M307.897 194.656C307.897 205.671 303.176 218.135 295.938 228.206L279.697 210.959L307.897 194.656Z" fill="#1D65D5"/>
<path d="M295.938 228.206L285.426 222.038L269.186 204.853L279.698 210.959L295.938 228.206Z" fill="#538DFF"/>
<path d="M279.697 210.959L295.938 228.206C291.342 234.501 285.803 239.914 279.823 243.376L279.697 210.959Z" fill="#1D65D5"/>
<path d="M279.698 210.959L269.186 204.853L297.386 188.549L307.898 194.655L279.698 210.959Z" fill="#538DFF"/>
<path d="M279.761 243.314L269.248 237.208L269.186 204.853L279.698 210.959L279.761 243.314Z" fill="#93B7FF"/>
<path d="M289.139 170.484L299.652 176.59C294.553 173.631 287.44 174.009 279.571 178.541L269.059 172.435C276.928 167.903 284.041 167.462 289.139 170.484Z" fill="#0045AD"/>
<path d="M279.635 178.541C295.246 169.539 307.898 176.778 307.961 194.655L278.124 212.618L279.635 178.541Z" fill="#1D65D5"/>
<path d="M279.697 210.959L269.185 204.853L269.059 172.435L279.634 178.541L279.697 210.959Z" fill="#155AFF"/>
<path d="M259.744 245.328L249.231 239.222C244.196 236.263 241.048 230.032 240.985 221.156C240.922 203.279 253.512 181.436 269.06 172.498L279.572 178.604C264.024 187.542 251.435 209.322 251.498 227.199C251.56 236.137 254.645 242.369 259.744 245.328Z" fill="#0045AD"/>
<path d="M279.636 178.541L279.824 243.377C264.276 252.378 251.624 245.139 251.561 227.262C251.435 209.322 264.025 187.543 279.636 178.541Z" fill="#1D65D5"/>
<g clip-path="url(#clip2_2_2096)">
<path d="M280.241 206.87C284.424 204.669 287.783 199.054 287.745 194.328C287.706 189.602 284.284 187.554 280.101 189.755C275.918 191.956 272.559 197.571 272.598 202.297C272.636 207.023 276.059 209.071 280.241 206.87Z" fill="white"/>
<path d="M267.736 227.774C267.684 221.472 272.163 213.985 277.74 211.051L282.789 208.395C288.366 205.46 292.929 208.19 292.981 214.492V214.492C293.007 217.642 290.767 221.386 287.979 222.853L272.832 230.822C270.043 232.289 267.762 230.925 267.736 227.774V227.774Z" fill="white"/>
</g>
</g>
<g clip-path="url(#clip3_2_2096)">
<path d="M147.555 76.6589L125.657 89.6868L116.947 84.6578L138.845 71.6299L147.555 76.6589Z" fill="#1C6DED"/>
<path d="M125.657 89.6869V109.132L116.947 104.103V84.6579L125.657 89.6869Z" fill="#3888FF"/>
<rect width="25.4803" height="19.4455" transform="matrix(0.859406 -0.511293 0 1 125.657 89.6867)" fill="#7DB1FF"/>
<path d="M100.587 93.3421V135.586L91.8767 130.557V88.313L100.587 93.3421Z" fill="#226CFB"/>
<path d="M122.485 80.3144L100.587 93.3423L91.8767 88.3133L113.775 75.2854L122.485 80.3144Z" fill="#115AE7"/>
<rect width="25.4803" height="42.2437" transform="matrix(0.859406 -0.511293 0 1 100.587 93.3422)" fill="#5E9EFF"/>
<path d="M81.2786 99.6038V152.576L72.5681 147.547V94.5748L81.2786 99.6038Z" fill="#044FC5"/>
<path d="M97.4139 90.0043L81.2786 99.6038L72.5681 94.5748L88.7034 84.9753L97.4139 90.0043Z" fill="#0143AA"/>
<rect width="18.775" height="52.9723" transform="matrix(0.859406 -0.511293 0 1 81.2789 99.6039)" fill="#3E7EFB"/>
<path d="M69.4623 96.0445V170.474L60.7518 165.445V91.0155L69.4623 96.0445Z" fill="#0045AD"/>
<path d="M78.1062 90.9019L69.4623 96.0445L60.7518 91.0154L69.3957 85.8728L78.1062 90.9019Z" fill="#003C97"/>
<rect width="10.058" height="74.4294" transform="matrix(0.859406 -0.511293 0 1 69.4622 96.0443)" fill="#0052D2"/>
<path opacity="0.08" d="M160.353 132.206C164.265 134.593 151.439 146.24 131.79 158.268C112.05 170.297 92.9472 178.125 89.0356 175.738C85.124 173.352 97.9503 161.705 117.599 149.676C137.339 137.648 156.442 129.819 160.353 132.206Z" fill="#00224A"/>
</g>
<defs>
<linearGradient id="paint0_linear_2_2096" x1="450.5" y1="433.5" x2="5.99991" y2="178.5" gradientUnits="userSpaceOnUse">
<stop offset="0.648386" stop-color="#457CFF"/>
<stop offset="1" stop-color="#457CFF" stop-opacity="0"/>
</linearGradient>
<linearGradient id="paint1_linear_2_2096" x1="412.733" y1="605.959" x2="-31.7674" y2="350.959" gradientUnits="userSpaceOnUse">
<stop offset="0.648386" stop-color="#457CFF"/>
<stop offset="1" stop-color="#457CFF" stop-opacity="0"/>
</linearGradient>
<linearGradient id="paint2_linear_2_2096" x1="340.925" y1="529.618" x2="721.224" y2="308.261" gradientUnits="userSpaceOnUse">
<stop offset="0.71875" stop-color="#457CFF"/>
<stop offset="0.916667" stop-color="#457CFF" stop-opacity="0"/>
</linearGradient>
<linearGradient id="paint3_linear_2_2096" x1="316" y1="332.999" x2="557" y2="187.499" gradientUnits="userSpaceOnUse">
<stop offset="0.728237" stop-color="#3F77FF"/>
<stop offset="1" stop-color="#3F77FF" stop-opacity="0"/>
</linearGradient>
<linearGradient id="paint4_linear_2_2096" x1="216.583" y1="385.124" x2="243.106" y2="385.124" gradientUnits="userSpaceOnUse">
<stop stop-color="#A8CBFF"/>
<stop offset="1" stop-color="#6398FF"/>
</linearGradient>
<linearGradient id="paint5_linear_2_2096" x1="370.097" y1="324.287" x2="445.647" y2="324.287" gradientUnits="userSpaceOnUse">
<stop stop-color="#A8CBFF"/>
<stop offset="1" stop-color="#6398FF"/>
</linearGradient>
<linearGradient id="paint6_linear_2_2096" x1="380.182" y1="266.989" x2="440.338" y2="266.989" gradientUnits="userSpaceOnUse">
<stop stop-color="#A8CBFF"/>
<stop offset="1" stop-color="#6398FF"/>
</linearGradient>
<linearGradient id="paint7_linear_2_2096" x1="667.975" y1="123.838" x2="670.616" y2="122.403" gradientUnits="userSpaceOnUse">
<stop stop-color="#F7F7F7"/>
<stop offset="1" stop-color="#F2F2F2"/>
</linearGradient>
<linearGradient id="paint8_linear_2_2096" x1="301.491" y1="221.445" x2="292.417" y2="270.556" gradientUnits="userSpaceOnUse">
<stop offset="0.0625612" stop-color="#CDD2DF"/>
<stop offset="1" stop-color="#CDD2DF" stop-opacity="0"/>
</linearGradient>
<linearGradient id="paint9_linear_2_2096" x1="332.084" y1="161" x2="291.945" y2="235.611" gradientUnits="userSpaceOnUse">
<stop stop-color="#CDD2DF" stop-opacity="0"/>
<stop offset="1" stop-color="#CDD2DF"/>
</linearGradient>
<clipPath id="clip0_2_2096">
<rect width="720" height="411" fill="white"/>
</clipPath>
<clipPath id="clip1_2_2096">
<rect width="136" height="136" fill="white" transform="translate(240 144)"/>
</clipPath>
<clipPath id="clip2_2_2096">
<rect width="45.6415" height="45.6415" fill="white" transform="matrix(0.884988 -0.465614 0.00820296 0.999966 259.869 196.102)"/>
</clipPath>
<clipPath id="clip3_2_2096">
<rect width="136" height="136" fill="white" transform="translate(43 60)"/>
</clipPath>
</defs>
</svg>
