<svg width="24" height="24" viewBox="0 0 24 24" fill="none" xmlns="http://www.w3.org/2000/svg">
<path d="M12 15C13.6569 15 15 13.6569 15 12C15 10.3431 13.6569 9 12 9C10.3431 9 9 10.3431 9 12C9 13.6569 10.3431 15 12 15Z" stroke="#9DA1B5" stroke-width="1.5" stroke-linecap="round" stroke-linejoin="round"/>
<path d="M11.375 3.22687C11.7618 3.00358 12.2382 3.00358 12.625 3.22687L19.2853 7.07217C19.672 7.29546 19.9103 7.70812 19.9103 8.1547V15.8453C19.9103 16.2919 19.672 16.7045 19.2853 16.9278L12.625 20.7731C12.2382 20.9964 11.7618 20.9964 11.375 20.7731L4.71475 16.9278C4.32799 16.7045 4.08975 16.2919 4.08975 15.8453V8.1547C4.08975 7.70812 4.32799 7.29546 4.71475 7.07217L11.375 3.22687Z" stroke="#9DA1B5" stroke-width="1.5"/>
</svg>
